<?xml version="1.0" standalone="no"?>
<!DOCTYPE svg PUBLIC "-//W3C//DTD SVG 20010904//EN"
 "http://www.w3.org/TR/2001/REC-SVG-20010904/DTD/svg10.dtd">
<svg version="1.0" xmlns="http://www.w3.org/2000/svg"
 width="512.000000pt" height="512.000000pt" viewBox="0 0 512.000000 512.000000"
 preserveAspectRatio="xMidYMid meet">
<metadata>
Created by potrace 1.14, written by Peter Selinger 2001-2017
</metadata>
<g transform="translate(0.000000,512.000000) scale(0.100000,-0.100000)"
fill="#000000" stroke="none">
<path d="M2348 5075 c-2 -1 -33 -5 -71 -9 -37 -3 -77 -8 -90 -10 -12 -3 -41
-7 -64 -10 -98 -12 -392 -95 -498 -140 -236 -102 -424 -211 -600 -347 -155
-119 -368 -340 -467 -484 -86 -126 -117 -171 -142 -215 -27 -46 -105 -203
-149 -300 -29 -64 -123 -341 -131 -385 -3 -16 -14 -79 -25 -140 -11 -60 -23
-137 -27 -170 -4 -33 -8 -73 -10 -90 -5 -43 -5 -414 0 -450 3 -16 7 -59 11
-95 4 -36 9 -72 11 -81 3 -10 6 -30 8 -45 17 -131 132 -488 202 -626 13 -27
24 -50 24 -53 1 -22 213 -361 257 -410 10 -11 37 -45 61 -77 106 -139 308
-340 433 -431 24 -17 46 -34 49 -37 18 -20 204 -133 314 -190 141 -73 386
-168 505 -195 76 -18 224 -47 256 -51 22 -3 54 -7 70 -9 126 -18 354 -24 460
-13 114 12 169 19 185 23 8 3 34 7 57 10 106 13 411 102 523 152 230 103 368
183 545 313 141 104 339 294 444 425 31 39 59 72 62 75 5 4 130 190 172 255
63 99 203 430 241 570 76 277 100 451 100 710 0 109 -9 292 -18 355 -2 14 -7
52 -11 85 -4 33 -9 63 -11 66 -2 3 -6 21 -9 40 -17 101 -76 296 -130 428 -37
90 -169 346 -186 361 -3 3 -8 12 -11 21 -6 15 -125 188 -137 199 -3 3 -24 28
-46 55 -22 28 -53 66 -70 85 -31 36 -233 237 -257 255 -7 6 -42 34 -78 62 -56
43 -139 99 -281 189 -159 100 -471 224 -679 269 -8 2 -36 8 -61 14 -25 6 -61
12 -80 15 -19 2 -56 7 -84 11 -27 3 -61 9 -75 12 -26 5 -486 13 -492 8z"/>
</g>
</svg>
