<?xml version="1.0" standalone="no"?>
<!DOCTYPE svg PUBLIC "-//W3C//DTD SVG 20010904//EN"
 "http://www.w3.org/TR/2001/REC-SVG-20010904/DTD/svg10.dtd">
<svg version="1.0" xmlns="http://www.w3.org/2000/svg"
 width="512.000000pt" height="512.000000pt" viewBox="0 0 512.000000 512.000000"
 preserveAspectRatio="xMidYMid meet">
<metadata>
Created by potrace 1.14, written by Peter Selinger 2001-2017
</metadata>
<g transform="translate(0.000000,512.000000) scale(0.100000,-0.100000)"
fill="#000000" stroke="none">
<path d="M0 4315 l0 -805 58 28 c31 16 80 37 107 47 28 10 55 22 60 25 6 4 35
15 65 25 69 23 180 75 180 84 0 4 21 20 47 34 69 39 96 66 130 132 16 32 40
66 53 74 22 15 24 15 17 -1 -3 -10 -3 -18 2 -18 5 0 12 11 15 25 3 13 41 60
84 104 63 65 92 86 157 116 104 48 148 76 138 86 -9 9 -173 -70 -244 -119 -36
-24 -58 -32 -92 -32 -25 0 -48 3 -50 8 -3 4 14 7 36 7 l42 0 7 60 c5 38 4 61
-2 63 -14 5 -12 25 5 58 20 38 20 65 0 58 -19 -8 -20 25 -1 51 11 16 11 23 -6
52 -11 18 -18 40 -14 48 3 8 -9 56 -25 107 -40 119 -38 112 -45 258 -2 69 -7
149 -10 178 l-5 52 -355 0 -354 0 0 -805z"/>
<path d="M838 5102 c-3 -10 1 -23 9 -30 11 -11 13 -8 13 12 0 30 -16 43 -22
18z"/>
<path d="M936 5068 c10 -37 12 -95 9 -210 -4 -104 -2 -158 5 -158 5 0 10 -7
10 -15 0 -8 2 -15 4 -15 2 0 10 -2 18 -5 10 -4 13 7 13 40 0 25 -4 45 -9 45
-6 0 -5 5 2 12 7 7 12 30 12 53 0 22 4 56 9 75 5 19 12 79 15 133 l5 97 -53 0
-53 0 13 -52z"/>
<path d="M1050 5101 c-7 -15 -7 -21 0 -21 12 0 25 28 17 36 -3 3 -10 -4 -17
-15z"/>
<path d="M1365 5110 c3 -5 8 -10 11 -10 2 0 4 5 4 10 0 6 -5 10 -11 10 -5 0
-7 -4 -4 -10z"/>
<path d="M1675 5109 c-4 -6 -4 -13 -1 -16 3 -4 6 -1 6 5 0 7 5 12 11 12 6 0 8
-7 5 -16 -3 -8 -2 -13 3 -10 5 3 14 -1 21 -9 18 -22 -17 -77 -41 -64 -12 6
-16 15 -12 27 6 15 5 15 -10 3 -13 -11 -17 -11 -17 -1 0 22 -13 2 -14 -21 0
-12 -7 -24 -15 -27 -10 -3 -13 2 -9 22 3 15 1 29 -3 32 -5 3 -9 0 -9 -5 0 -6
-8 -11 -18 -11 -15 0 -17 -10 -16 -87 1 -83 2 -88 22 -87 12 1 19 -3 15 -9 -4
-6 4 -7 23 -3 37 10 194 98 188 107 -4 8 128 96 204 134 28 15 52 29 52 31 0
10 -379 3 -385 -7z m85 -94 c0 -7 7 -18 15 -25 25 -21 17 -34 -10 -16 -13 9
-31 16 -40 16 -18 0 -18 2 -3 34 9 20 14 23 25 15 7 -6 13 -17 13 -24z m-163
-77 c-3 -7 -5 -2 -5 12 0 14 2 19 5 13 2 -7 2 -19 0 -25z m59 -14 c22 8 17 0
-12 -19 -17 -11 -24 -12 -18 -4 5 8 8 23 7 34 -1 17 -1 17 4 2 3 -11 11 -16
19 -13z m-46 -21 c0 -10 -4 -14 -8 -8 -4 6 -11 13 -16 18 -5 4 -2 7 7 7 10 0
17 -8 17 -17z"/>
<path d="M2330 5113 c-8 -3 -31 -13 -50 -22 -19 -9 -37 -16 -40 -17 -35 -10
-50 -18 -50 -26 0 -6 -7 -8 -15 -4 -8 3 -15 1 -15 -4 0 -5 -12 -12 -27 -16
-48 -10 -123 -38 -123 -45 0 -4 -18 -14 -41 -23 -34 -14 -40 -21 -36 -37 5
-20 5 -20 -15 -3 -17 16 -21 17 -31 4 -7 -8 -18 -15 -26 -15 -8 0 -16 -6 -19
-14 -3 -9 0 -11 8 -6 10 6 12 4 7 -8 -5 -14 -1 -15 26 -10 18 3 38 10 45 16 7
5 15 7 19 4 3 -4 15 -1 27 5 11 7 32 12 46 13 14 0 30 3 35 6 6 4 35 12 65 19
30 7 78 23 105 36 28 12 105 37 173 55 122 32 152 49 88 49 -28 0 -35 4 -40
25 -6 22 -11 25 -54 24 -26 0 -54 -3 -62 -6z"/>
<path d="M2457 5109 c8 -8 16 -8 30 0 16 9 14 10 -11 11 -22 0 -27 -3 -19 -11z"/>
<path d="M2690 5098 c0 -40 -1 -42 -13 -57 -7 -8 14 0 46 18 47 27 72 34 136
38 88 6 115 -3 125 -43 8 -32 -19 -129 -45 -162 -10 -14 -19 -33 -19 -43 0
-10 -4 -20 -9 -23 -4 -3 -11 -19 -14 -36 -6 -26 -28 -54 -153 -192 -47 -52
-129 -110 -199 -139 -63 -27 -112 -42 -285 -84 -165 -41 -460 -146 -468 -166
-2 -4 -9 -6 -16 -3 -17 6 -195 -86 -271 -141 -80 -58 -209 -178 -234 -218 -26
-42 -16 -87 30 -135 25 -27 29 -36 19 -45 -10 -9 -14 -9 -17 1 -3 6 -11 12
-19 12 -8 0 -11 -6 -7 -16 5 -13 2 -15 -17 -9 -15 5 -20 4 -16 -4 4 -6 5 -11
1 -11 -3 0 -10 10 -16 23 -7 17 -8 14 -4 -18 l6 -40 -22 45 c-16 33 -23 40
-26 27 -3 -10 1 -25 8 -33 6 -8 9 -17 6 -20 -7 -7 -31 14 -41 36 -3 9 -4 5 -2
-7 5 -30 -20 -31 -27 -1 -4 12 -9 19 -12 16 -7 -7 13 -50 28 -59 5 -4 6 -12 2
-19 -11 -18 -42 16 -49 54 -3 18 -15 42 -26 54 -11 12 -20 28 -20 35 0 8 -6
19 -13 25 -10 8 -13 6 -14 -9 -1 -10 2 -19 8 -19 5 0 9 -4 9 -10 0 -5 -9 -10
-21 -10 -11 0 -18 -4 -14 -9 7 -13 -10 -22 -28 -15 -9 3 -14 13 -11 22 3 9 -2
5 -11 -10 -8 -16 -20 -28 -25 -28 -12 0 4 -54 29 -96 11 -19 18 -34 15 -34
-18 0 -86 61 -108 96 -15 24 -34 41 -43 40 -10 0 -20 9 -24 24 l-7 25 -2 -25
c-1 -22 -2 -23 -9 -6 -5 14 -10 16 -15 8 -4 -7 -12 -10 -17 -7 -5 4 -9 -1 -9
-11 0 -11 -4 -14 -12 -7 -15 11 -38 11 -38 1 0 -5 0 -17 0 -27 0 -11 8 -27 18
-37 9 -10 16 -20 15 -23 -2 -7 30 -51 37 -51 3 0 11 9 17 19 10 15 9 20 -2 25
-10 3 -12 0 -9 -12 5 -16 4 -16 -9 0 -8 10 -18 14 -22 10 -4 -4 -6 0 -3 8 5
16 35 15 55 -2 15 -12 17 -44 3 -53 -7 -4 -6 -13 1 -26 6 -12 9 -22 7 -25 -2
-2 -35 8 -74 22 -38 14 -76 27 -84 29 -44 9 -129 43 -123 48 3 4 -2 7 -11 7
-13 0 -17 -6 -13 -19 3 -13 1 -18 -9 -14 -7 2 -11 10 -8 18 4 8 -4 12 -23 12
-15 0 -22 -2 -15 -4 27 -10 9 -20 -31 -17 -28 2 -48 10 -59 25 -10 12 -18 17
-18 12 0 -5 6 -15 13 -22 10 -11 9 -13 -5 -8 -10 4 -18 2 -18 -4 0 -6 -9 -1
-21 12 l-20 24 6 -25 c5 -21 4 -22 -5 -8 -6 9 -17 15 -25 12 -8 -4 -15 -1 -15
6 0 7 -5 6 -15 -4 -22 -21 -19 -70 10 -160 27 -84 31 -121 15 -131 -5 -3 -10
0 -10 7 0 11 -2 11 -8 0 -7 -10 -15 -10 -37 -2 -15 6 -30 8 -33 6 -2 -3 -20 1
-38 9 -19 8 -37 14 -39 15 -3 0 -6 0 -7 1 -19 5 -38 6 -38 1 1 -13 30 -46 30
-33 0 7 4 9 10 6 5 -3 10 -10 10 -16 0 -14 -22 -11 -42 8 -18 16 -18 16 -12 0
7 -19 -6 -23 -23 -6 -7 7 -10 3 -10 -14 0 -18 4 -24 13 -20 8 3 32 -6 54 -21
22 -14 45 -26 52 -26 7 0 31 -8 52 -18 l39 -18 -49 1 c-27 1 -59 7 -72 13 -12
7 -27 10 -32 7 -5 -3 -21 2 -35 11 -24 16 -25 16 -25 -8 0 -20 7 -27 38 -36
l37 -11 -38 3 -38 2 2 -192 c2 -155 5 -191 16 -187 7 3 13 0 13 -6 0 -6 5 -11
11 -11 5 0 7 4 4 10 -4 6 1 7 11 3 13 -5 16 -3 11 10 -7 19 3 23 19 7 6 -6 15
-5 24 1 13 9 13 10 0 6 -8 -2 -20 1 -25 7 -16 16 -13 56 3 56 9 0 11 -7 6 -22
-6 -22 -6 -22 14 2 12 14 21 19 22 13 0 -7 5 -13 10 -13 6 0 10 6 10 13 0 6
14 25 31 42 23 22 28 25 23 10 -4 -11 -16 -28 -27 -37 -11 -10 -15 -18 -9 -18
6 0 20 9 31 21 11 12 25 18 31 14 7 -4 4 -13 -11 -26 -12 -11 -20 -22 -16 -25
3 -3 19 8 35 26 18 18 33 27 37 21 3 -6 12 -11 18 -11 8 0 8 3 -1 9 -10 6 -9
11 4 22 12 9 15 10 10 2 -4 -8 -1 -13 8 -13 12 0 13 5 7 22 -6 16 -3 28 10 42
11 11 22 16 26 13 3 -4 2 -7 -4 -7 -17 0 -23 -41 -8 -47 25 -9 74 20 85 51 13
37 13 36 -5 30 -8 -4 -15 -1 -15 5 0 6 9 11 20 11 11 0 20 3 20 8 0 4 10 13
22 21 23 14 23 13 -1 -12 -13 -14 -21 -32 -18 -39 2 -7 0 -22 -6 -33 -9 -18
-9 -19 6 -6 10 7 17 21 17 31 0 10 8 27 18 38 20 23 62 39 62 23 0 -6 -9 -11
-20 -11 -10 0 -24 -9 -30 -19 -14 -26 -13 -36 2 -23 7 6 16 10 20 9 13 -4 44
38 40 56 -2 9 2 17 8 17 7 0 10 -6 7 -14 -3 -8 0 -20 8 -26 11 -9 14 -6 17 17
3 24 7 28 33 26 16 -1 33 3 37 10 6 9 8 9 8 -1 0 -16 -24 -42 -39 -42 -15 0
-53 -59 -47 -73 3 -7 7 -3 11 11 4 12 14 22 22 22 8 0 12 4 9 8 -3 5 6 15 19
22 20 11 28 10 49 -4 32 -20 46 -20 46 0 0 10 6 14 15 10 8 -3 15 -1 15 4 0 6
7 10 16 10 11 0 14 -6 9 -21 -5 -15 -4 -19 4 -15 6 4 11 0 11 -8 0 -9 -7 -16
-15 -16 -8 0 -15 5 -15 10 0 6 -4 10 -10 10 -5 0 -10 -7 -10 -17 0 -9 3 -13 6
-10 4 3 15 2 24 -3 13 -7 20 -6 24 6 7 18 -3 66 -16 75 -5 3 -2 21 6 40 l15
34 1 -28 c0 -16 4 -26 8 -23 4 2 14 0 22 -5 11 -7 7 -8 -12 -5 -16 3 -28 3
-28 2 0 -10 31 -76 36 -76 3 0 2 5 -1 11 -4 6 1 16 11 24 24 17 37 0 21 -26
-9 -14 -8 -21 2 -31 12 -11 13 -10 8 3 -4 13 -1 16 15 11 17 -4 19 -1 13 17
-4 12 -2 21 4 21 16 0 13 -27 -4 -54 -15 -22 -14 -24 5 -29 17 -4 19 -3 9 9
-9 11 -8 15 5 20 9 3 13 10 10 15 -3 5 -1 9 4 9 16 0 22 30 10 49 -16 27 1 51
29 40 15 -5 21 -14 17 -24 -6 -14 -8 -13 -20 2 -13 17 -13 17 -14 -3 0 -12 7
-24 15 -28 17 -6 21 -36 5 -36 -5 0 -10 -7 -10 -15 0 -11 6 -12 22 -6 23 8 37
31 19 31 -6 0 -11 7 -11 15 0 14 3 13 24 -2 l25 -18 -22 -17 c-24 -19 -8 -24
23 -8 13 7 21 7 25 0 3 -5 -1 -10 -9 -10 -8 0 -31 -14 -51 -31 -25 -22 -35
-39 -35 -60 0 -16 5 -29 11 -29 5 0 7 4 4 10 -3 5 -1 18 4 27 8 14 11 15 11 3
0 -10 7 -7 20 10 31 40 23 3 -10 -47 -16 -24 -30 -46 -30 -47 0 -13 36 -13 61
-1 16 9 29 12 29 9 0 -12 -68 -74 -73 -66 -5 9 1 -13 9 -33 5 -11 2 -13 -10
-9 -12 5 -16 0 -16 -23 0 -16 -5 -34 -12 -41 -8 -8 -9 -12 -1 -12 6 0 14 6 16
13 4 9 6 9 6 0 1 -18 21 -16 21 2 0 8 -4 15 -10 15 -19 0 -10 28 10 33 12 3
20 14 20 26 0 25 20 29 21 4 0 -17 1 -17 11 -1 11 14 13 14 25 -9 13 -25 9
-48 -5 -27 -4 5 -17 11 -29 11 -32 2 -38 -29 -13 -69 15 -22 19 -26 15 -10 -4
14 -2 22 5 22 7 0 10 8 7 20 -3 12 -1 18 5 14 5 -4 7 -21 3 -40 -3 -21 -2 -34
5 -34 5 0 10 7 10 15 0 8 6 15 14 15 7 0 17 10 21 23 6 19 8 19 12 4 2 -10 -4
-25 -15 -35 -25 -21 -39 -97 -17 -88 12 4 13 2 3 -14 -7 -10 -9 -23 -5 -27 5
-4 12 -1 17 7 13 20 12 3 0 -21 -7 -12 -7 -19 -1 -19 6 0 15 9 21 20 6 11 15
18 21 15 5 -4 9 -2 9 3 0 5 9 12 20 15 29 8 24 -6 -10 -25 -16 -9 -32 -28 -36
-42 -3 -14 -10 -26 -15 -26 -5 0 -9 -8 -9 -19 0 -22 -21 -66 -33 -68 -29 -5
-32 -10 -20 -42 10 -28 9 -31 -5 -29 -11 2 -21 -9 -30 -37 -18 -54 -71 -163
-84 -171 -6 -4 -7 -21 -3 -43 6 -34 6 -35 -9 -16 -22 28 -20 13 5 -40 11 -24
19 -50 16 -57 -3 -8 -6 -6 -6 6 -1 12 -6 16 -17 12 -13 -5 -15 -1 -10 18 3 14
2 27 -2 30 -12 7 -32 -61 -25 -82 4 -14 3 -15 -6 -2 -8 12 -11 12 -17 -3 -4
-12 -13 -16 -25 -12 -12 4 -19 1 -19 -7 -1 -9 -5 -7 -14 5 -12 16 -14 16 -20
1 -12 -33 -7 -45 19 -40 26 5 32 -3 16 -19 -5 -6 -6 -41 -2 -80 3 -41 9 -65
14 -57 10 15 27 16 27 1 0 -5 -5 -7 -10 -4 -6 3 -10 2 -10 -2 0 -5 -16 -15
-35 -22 -25 -9 -35 -18 -35 -33 0 -17 2 -18 15 -8 16 14 20 3 6 -19 -5 -7 -13
-11 -19 -7 -5 3 -16 -4 -24 -17 -14 -23 -13 -67 3 -67 5 0 9 -5 9 -11 0 -8 -4
-8 -15 1 -8 6 -19 9 -26 5 -8 -6 -8 -2 0 13 7 14 8 23 1 27 -6 3 -14 -5 -19
-18 -6 -14 -14 -28 -20 -31 -6 -4 -8 -13 -5 -21 3 -7 -4 -23 -15 -34 -25 -25
-26 -28 -7 -28 8 0 17 11 20 23 4 15 11 21 20 18 8 -3 21 4 29 16 15 22 15 22
13 -4 -1 -20 -6 -26 -25 -26 -17 0 -22 -4 -17 -16 14 -38 17 -62 7 -68 -16
-10 -14 -36 3 -36 8 0 17 7 20 16 9 24 7 54 -4 54 -5 0 -10 5 -10 10 0 14 47
13 52 -2 2 -6 10 -8 16 -4 14 9 15 16 2 36 -9 13 -11 13 -20 0 -5 -8 -10 -10
-10 -4 0 6 7 17 15 24 9 8 12 22 8 43 -5 26 -4 29 12 24 22 -9 45 9 46 37 0
20 1 20 8 1 5 -12 4 -23 -3 -27 -11 -7 -12 -11 -15 -45 -1 -15 -3 -16 -11 -3
-8 12 -10 12 -16 -3 -3 -9 -3 -25 1 -34 10 -22 6 -54 -7 -70 -8 -10 -15 -7
-30 10 -18 20 -19 20 -13 2 18 -52 19 -59 2 -52 -30 11 -19 -21 19 -57 22 -21
32 -36 25 -40 -6 -4 -11 -2 -11 4 0 7 -7 10 -15 6 -8 -3 -15 -2 -15 2 0 4 -10
20 -23 35 l-22 28 -2 -50 c-1 -44 2 -51 18 -51 10 0 19 5 19 12 0 6 2 9 5 6 3
-3 1 -17 -5 -32 -9 -26 -10 -26 -35 -10 -14 9 -29 30 -33 47 -4 17 -11 27 -15
21 -3 -6 1 -23 9 -39 15 -28 10 -51 -6 -26 -6 10 -12 5 -25 -20 -17 -33 -17
-34 1 -18 11 9 29 20 40 23 20 6 22 3 21 -34 -1 -25 -5 -40 -13 -40 -23 0 -25
-19 -3 -30 32 -18 54 7 39 44 -13 34 -13 49 0 41 6 -3 10 -17 10 -31 0 -35 25
-30 37 9 5 18 15 31 23 29 8 -2 11 5 8 22 -3 14 -1 23 4 20 5 -3 7 -26 5 -50
-3 -24 -1 -42 4 -39 4 3 6 12 2 20 -4 11 -1 13 11 9 20 -8 21 -28 1 -44 -9 -7
-13 -15 -11 -18 3 -2 13 4 23 13 11 12 18 14 21 6 2 -7 -5 -20 -17 -30 -11
-10 -17 -21 -13 -25 4 -4 0 -13 -8 -20 -8 -6 -26 -25 -40 -40 l-25 -29 26 19
c15 10 37 35 50 54 13 19 28 38 33 41 9 7 6 25 -10 64 -7 18 -6 18 7 5 9 -9
18 -21 20 -27 8 -24 29 4 43 57 8 30 15 47 15 38 1 -22 21 -24 21 -3 0 23 16
18 28 -10 16 -34 28 -31 43 9 15 41 34 37 25 -5 -3 -15 -1 -31 5 -35 6 -3 8
-12 5 -19 -7 -20 5 -26 23 -12 14 10 14 10 4 -4 -13 -16 -13 -120 -1 -112 5 2
8 -4 8 -14 0 -29 -70 -141 -121 -194 -40 -42 -52 -48 -86 -47 -22 0 -68 -12
-104 -27 -144 -60 -226 -86 -284 -92 -59 -5 -62 -7 -74 -39 -14 -38 -249 -394
-261 -394 -37 0 -17 324 22 351 5 3 8 10 6 15 -8 24 62 144 84 144 7 0 6 -5
-1 -13 -6 -8 -8 -17 -4 -20 11 -12 23 -8 23 8 0 9 9 15 21 15 19 0 19 1 5 16
-18 18 -21 34 -6 34 6 0 10 -4 10 -10 0 -5 5 -10 10 -10 6 0 10 9 10 21 0 12
16 35 37 52 21 18 53 47 72 66 20 18 46 34 58 35 22 1 34 26 13 26 -5 0 -10
10 -10 23 0 24 -43 77 -63 77 -7 0 -27 -17 -44 -37 -99 -116 -92 -110 -108
-89 -15 19 -15 19 -15 -3 0 -18 -4 -22 -20 -18 -11 3 -23 1 -26 -4 -3 -6 -11
-8 -17 -6 -7 2 -17 -3 -23 -11 -9 -13 -14 -12 -35 9 -13 13 -29 23 -35 21 -7
-1 -22 13 -34 33 -16 26 -28 35 -50 35 -37 0 -54 22 -47 64 5 32 5 33 -19 22
l-24 -11 0 -407 c0 -396 1 -408 20 -408 24 0 37 -20 13 -21 -16 0 -16 -1 2 -8
19 -8 19 -8 0 -19 -14 -8 -15 -11 -6 -12 12 0 12 -3 3 -12 -7 -7 -12 -27 -12
-44 0 -18 -5 -36 -10 -39 -6 -3 -10 -17 -10 -31 l0 -24 621 0 621 0 -7 58 c-7
63 4 104 37 139 16 17 21 38 24 95 2 40 5 80 5 88 1 8 1 35 0 60 -3 107 -3
110 19 110 28 0 37 -28 15 -44 -16 -12 -16 -13 -1 -19 23 -9 20 -30 -4 -22
-18 6 -19 4 -10 -21 6 -15 18 -33 28 -40 14 -10 14 -14 3 -28 -15 -18 -8 -46
12 -46 10 0 13 -8 9 -25 -4 -26 -22 -35 -22 -12 0 7 -9 18 -21 25 -19 12 -20
12 -13 -10 5 -13 8 -35 8 -50 -1 -30 28 -44 47 -22 16 20 31 7 17 -16 -7 -10
-16 -16 -20 -14 -12 8 -9 -16 6 -61 11 -31 16 -36 21 -23 9 23 25 23 25 2 0
-13 3 -14 15 -4 8 6 19 9 26 5 6 -4 14 -3 18 3 9 16 1 102 -11 102 -5 0 -6 -6
-2 -13 6 -9 5 -9 -7 -1 -8 7 -23 14 -34 16 -17 3 -16 6 11 19 21 11 35 13 46
6 8 -6 23 -7 33 -3 16 6 14 10 -17 36 -37 30 -46 56 -49 145 -1 25 2 39 9 38
14 -3 75 55 85 80 9 25 30 22 22 -4 -5 -15 -4 -19 4 -15 6 4 15 -4 21 -18 12
-32 24 -34 15 -3 -7 22 -7 22 9 2 20 -25 20 -35 1 -35 -8 0 -15 -4 -15 -10 0
-5 -7 -10 -16 -10 -35 0 -5 -25 37 -31 46 -6 45 -8 -10 -15 -42 -5 -61 9 -62
50 -1 19 -3 23 -6 11 -2 -11 -6 -30 -9 -42 -2 -13 -18 -38 -34 -57 -19 -21
-27 -37 -20 -41 5 -3 44 3 85 14 90 25 99 26 91 6 -6 -18 2 -45 15 -45 11 0 1
49 -14 68 -6 8 -5 12 5 12 8 0 20 -20 28 -47 9 -31 16 -41 18 -29 4 19 -34
142 -50 163 -5 6 -11 30 -14 54 -3 23 -9 50 -13 58 -5 9 -16 50 -25 91 -10 41
-21 82 -24 90 -4 8 -7 47 -7 85 0 39 -4 84 -8 101 -7 27 -5 32 12 37 14 3 21
0 21 -9 0 -8 6 -14 13 -14 8 0 20 -11 27 -25 7 -14 18 -25 23 -25 5 0 2 10 -7
22 -9 13 -24 36 -34 51 -9 16 -43 69 -74 118 -62 96 -97 167 -129 261 -17 49
-21 83 -21 201 1 78 5 166 11 196 6 29 11 77 11 105 0 28 5 69 11 91 6 22 11
77 11 122 0 75 -2 85 -32 127 -42 62 -67 121 -75 179 -4 26 -14 54 -21 62 -8
7 -10 16 -6 19 5 3 9 26 10 51 0 25 -4 43 -9 39 -5 -3 -9 -1 -9 4 0 6 8 13 18
17 16 6 16 7 0 19 -22 16 -23 27 -3 20 11 -5 15 1 15 17 0 19 -2 21 -10 9 -8
-13 -10 -12 -10 3 0 9 6 17 13 17 6 0 27 25 45 56 19 30 57 73 85 96 49 39
156 111 167 113 39 7 93 33 102 48 7 13 12 16 17 8 5 -7 12 -3 19 14 6 14 8
25 3 25 -21 0 -41 -13 -41 -27 0 -8 -5 -11 -12 -7 -8 5 -9 2 -5 -9 3 -10 2
-17 -2 -17 -17 0 -20 29 -4 41 8 7 19 24 25 38 7 21 11 23 19 11 8 -12 9 -10
4 7 -4 16 -1 23 15 28 20 6 28 25 11 25 -13 0 -41 -29 -41 -41 0 -6 -4 -8 -9
-5 -5 3 -14 -8 -21 -24 -7 -16 -16 -27 -21 -24 -5 3 -9 -4 -9 -16 0 -11 -7
-23 -15 -26 -8 -4 -15 -14 -15 -23 0 -11 -5 -8 -13 9 -17 32 -11 56 9 39 12
-9 13 -9 8 4 -3 9 2 19 14 26 11 6 22 18 26 28 6 17 5 17 -8 0 -9 -12 -16 -14
-21 -7 -4 6 -1 17 5 25 10 12 10 15 -2 15 -8 0 -18 -16 -24 -37 -5 -20 -16
-39 -24 -41 -12 -3 -12 -2 -3 8 6 7 9 19 6 26 -3 8 7 33 22 56 20 30 29 37 36
27 4 -7 11 -10 15 -6 4 4 14 -2 21 -13 15 -22 38 -17 29 6 -3 7 -1 16 4 19 4
3 10 0 12 -7 2 -6 10 -8 17 -4 18 11 -5 35 -29 29 -12 -3 -23 3 -32 16 -16 27
-28 27 -28 0 0 -11 -5 -17 -10 -14 -6 3 -13 -1 -16 -10 -4 -9 -18 -21 -31 -26
-14 -5 -21 -14 -17 -20 3 -6 -2 -26 -12 -45 -18 -34 -18 -36 -1 -46 17 -9 17
-12 -12 -40 -17 -17 -31 -35 -31 -41 0 -5 -8 -3 -18 6 -16 15 -21 15 -39 2
-19 -13 -21 -13 -26 7 -7 25 -1 38 16 37 9 0 9 -2 0 -6 -20 -8 -15 -23 7 -23
11 0 20 6 20 13 0 6 5 4 11 -5 5 -10 14 -18 19 -18 14 0 12 27 -2 34 -10 5
-10 7 -1 12 10 4 10 9 -1 20 -19 18 -26 18 -26 -1 0 -8 -5 -15 -11 -15 -7 0
-8 7 -3 18 9 21 9 81 -1 105 -4 9 -3 17 3 17 5 0 12 -9 15 -20 7 -28 27 -25
27 4 0 14 4 27 9 30 4 3 7 -14 5 -38 -2 -39 0 -43 17 -39 15 4 19 13 18 37 -1
17 -1 36 1 41 6 26 -1 36 -21 30 -15 -5 -19 -4 -15 4 4 6 15 11 24 11 10 0 33
18 51 40 18 22 37 37 42 34 5 -3 16 2 25 10 24 24 38 19 21 -8 -11 -17 -13
-26 -5 -34 8 -8 8 -15 1 -24 -8 -9 -5 -18 8 -32 17 -17 19 -17 25 -2 3 9 16
16 28 16 21 1 21 1 2 15 -11 8 -14 15 -8 15 7 0 12 11 12 25 0 14 4 25 10 25
5 0 7 -6 4 -14 -3 -8 -1 -17 5 -21 6 -3 11 -1 11 6 0 7 3 9 7 5 10 -10 13 -37
3 -31 -4 3 -10 -5 -13 -17 -4 -12 -1 -25 5 -29 6 -4 10 -18 10 -32 0 -25 1
-26 26 -9 26 17 26 17 4 20 -26 4 -28 19 -6 47 15 20 16 19 12 -5 -2 -18 4
-28 22 -37 14 -7 19 -13 12 -13 -14 0 -10 -36 7 -68 16 -29 14 -35 -10 -29
-16 4 -19 2 -14 -11 4 -9 10 -23 13 -31 3 -9 1 -12 -6 -7 -7 4 -12 2 -12 -3 0
-6 6 -11 13 -11 6 -1 40 -3 75 -6 59 -5 62 -4 62 16 0 20 -2 21 -16 9 -15 -12
-16 -11 -9 11 8 26 28 50 42 50 21 0 32 23 21 44 -8 17 -8 19 2 9 11 -10 16
-8 25 10 14 26 10 37 -12 37 -9 0 -13 -6 -9 -15 3 -8 0 -14 -7 -12 -7 1 -13
-9 -14 -23 0 -14 -1 -29 -2 -34 -1 -6 -8 -1 -16 10 -14 19 -20 11 -16 -23 1
-7 -3 -13 -8 -13 -15 0 -25 21 -14 29 6 3 13 17 17 31 l7 25 -20 -24 c-24 -26
-25 -24 -11 14 8 21 13 24 28 16 13 -7 23 -3 42 16 l25 26 -35 -7 -35 -7 30
14 c17 8 39 22 48 32 10 9 21 14 25 11 6 -7 -10 -21 -33 -29 -5 -3 -7 -8 -3
-12 4 -4 14 -2 23 5 10 8 15 9 15 1 0 -6 -4 -11 -10 -11 -5 0 -10 -4 -10 -10
0 -25 19 -6 40 41 31 66 46 74 22 12 -11 -26 -17 -54 -14 -62 2 -8 0 -11 -6
-7 -5 3 -24 -23 -42 -58 -22 -45 -36 -63 -46 -59 -8 3 -14 -1 -14 -11 0 -9 5
-16 10 -16 6 0 8 -11 4 -25 -5 -21 -3 -25 15 -25 34 0 158 -46 227 -85 35 -20
90 -61 123 -93 l60 -57 -1 43 c-1 48 -11 60 -35 40 -11 -8 -14 -9 -10 -1 16
26 -19 78 -71 105 -48 25 -51 25 -57 8 -7 -23 -42 -15 -51 12 -4 14 -9 16 -19
8 -9 -8 -14 -5 -18 12 -4 12 -2 25 4 29 6 3 4 11 -6 19 -11 9 -15 9 -15 1 0
-7 -7 -20 -16 -29 -15 -15 -16 -14 -9 8 4 14 10 31 12 38 4 8 0 10 -11 6 -9
-3 -16 -1 -16 6 0 6 -4 9 -9 5 -6 -3 -14 3 -20 12 -9 16 -12 16 -20 3 -12 -17
-24 -9 -16 11 7 16 75 62 75 51 0 -5 -5 -13 -11 -19 -8 -8 -8 -16 0 -30 7 -11
11 -13 11 -4 0 8 7 11 20 8 13 -3 20 0 20 9 0 8 -7 14 -15 14 -8 0 -15 3 -15
6 0 8 30 37 31 30 1 -3 2 -10 3 -16 0 -5 6 -10 11 -11 6 0 15 -10 22 -22 12
-21 12 -20 9 10 -3 33 14 59 29 45 4 -4 6 3 3 15 -4 16 -2 20 8 16 8 -3 14
-10 14 -16 0 -6 3 -7 7 -4 3 4 12 2 19 -4 20 -16 28 10 9 31 -9 10 -12 20 -8
23 14 9 37 -52 25 -66 -15 -18 -3 -65 19 -72 10 -4 19 -11 19 -16 0 -5 7 -9
16 -9 13 0 14 3 4 15 -6 8 -10 20 -7 27 4 8 6 7 6 -4 1 -10 6 -18 11 -18 6 0
10 -10 11 -22 0 -15 2 -18 6 -8 3 8 12 19 19 23 8 4 14 20 14 35 0 38 19 7 21
-33 0 -30 1 -30 18 10 l18 40 5 -50 c4 -33 2 -53 -5 -57 -9 -6 -9 -10 -1 -15
7 -5 11 -26 10 -48 -1 -29 3 -40 13 -40 18 0 35 53 55 178 7 41 15 50 32 36
11 -9 14 -7 14 14 0 32 27 45 29 14 1 -12 4 -51 7 -87 3 -36 6 -95 7 -131 1
-39 8 -73 16 -82 15 -19 1 -23 -17 -5 -9 9 -12 7 -12 -10 0 -12 -6 -22 -12
-22 -19 0 44 -49 64 -50 24 0 33 -20 9 -20 -14 0 -19 -5 -15 -15 4 -10 0 -15
-12 -15 -31 0 2 -23 36 -25 16 -1 32 -4 36 -8 9 -8 44 28 93 95 48 67 52 79
14 43 l-28 -25 -7 22 c-4 17 -6 11 -7 -19 -1 -24 -6 -43 -11 -43 -6 0 -9 3 -8
8 5 20 -15 72 -29 72 -12 0 -13 -10 -8 -54 4 -33 3 -56 -3 -60 -6 -3 -9 2 -7
11 1 10 -4 34 -12 53 -41 96 -55 151 -59 230 -3 47 -7 90 -9 97 -2 7 0 15 6
19 6 3 8 12 5 20 -3 7 -1 16 4 19 5 3 7 12 3 20 -3 9 1 15 11 15 10 0 13 6 10
15 -10 24 13 17 35 -11 22 -28 29 -17 11 17 -7 13 -7 19 0 19 5 0 10 -7 10
-15 0 -19 24 -19 43 0 13 12 16 12 21 -8 l6 -22 20 25 20 25 0 -32 c0 -24 4
-31 14 -27 9 3 12 12 9 21 -5 13 -2 15 15 11 17 -5 26 1 39 23 25 43 34 35 12
-11 -24 -50 -24 -55 2 -29 12 12 27 18 36 15 9 -4 22 -1 30 5 7 7 16 9 19 6 9
-9 34 19 34 37 0 9 5 16 10 16 15 0 12 -23 -5 -46 -20 -27 -19 -43 5 -37 17 5
18 2 10 -27 -5 -18 -14 -38 -20 -46 -7 -7 -9 -18 -5 -24 3 -5 1 -10 -4 -10 -6
0 -11 -5 -11 -11 0 -5 5 -7 10 -4 18 11 10 -11 -12 -35 -16 -17 -18 -22 -6
-17 12 4 19 0 23 -14 4 -11 13 -18 20 -16 146 57 292 64 449 23 108 -29 171
-63 250 -136 98 -90 139 -180 112 -242 l-14 -33 -1 44 c-1 29 -5 41 -10 35 -6
-5 -6 -26 0 -54 20 -83 -12 -254 -68 -363 -53 -106 -213 -230 -310 -240 -16
-2 -33 -6 -38 -8 -37 -20 -279 -16 -342 5 -82 27 -169 89 -193 136 -11 23 -27
43 -35 47 -8 3 -13 9 -10 13 3 4 -2 10 -10 14 -8 3 -15 11 -15 18 0 9 3 8 10
-2 7 -10 10 -11 10 -2 0 7 -7 15 -15 18 -19 8 -37 40 -41 72 -2 19 0 21 12 11
9 -7 12 -20 8 -32 -4 -11 -2 -17 4 -13 5 3 27 -20 50 -52 117 -166 225 -221
414 -208 192 13 347 109 441 273 86 150 106 301 54 401 -71 136 -250 233 -426
232 -90 -1 -204 -28 -281 -67 -127 -64 -320 -270 -320 -341 0 -13 -4 -20 -10
-17 -5 3 -10 2 -10 -3 0 -6 -10 -5 -25 1 -20 10 -22 13 -7 18 26 10 -51 23
-80 13 l-23 -8 25 -7 c25 -7 1 -10 -87 -12 -13 -1 -23 -7 -23 -14 0 -17 -150
-298 -195 -366 -41 -61 -83 -96 -123 -102 -15 -2 -47 -14 -72 -28 -53 -29
-155 -57 -211 -57 -21 0 -39 -4 -39 -10 0 -5 15 -10 33 -10 17 -1 43 -10 56
-21 21 -17 23 -23 13 -37 -7 -9 -18 -29 -25 -45 -7 -15 -16 -24 -20 -20 -4 3
-7 1 -7 -5 0 -7 -18 -31 -40 -53 -22 -23 -40 -45 -40 -50 0 -5 -15 -18 -32
-29 -18 -11 -29 -20 -24 -20 5 0 -1 -11 -13 -24 -13 -14 -20 -30 -16 -36 4 -7
-14 -34 -46 -66 -29 -30 -50 -54 -45 -54 5 0 36 21 69 46 97 72 89 38 -20 -99
l-66 -82 79 78 c44 42 83 77 88 77 18 0 -2 -103 -33 -160 -43 -83 -39 -86 13
-8 38 58 44 76 50 140 3 40 13 97 20 125 16 61 82 153 110 154 3 0 19 13 37
30 17 16 37 29 45 29 8 0 14 4 14 9 0 5 12 12 26 15 15 4 32 12 39 19 30 28
56 47 65 47 6 0 10 12 10 26 0 18 16 42 51 77 84 85 152 203 215 371 18 49 39
95 46 102 19 18 105 2 123 -22 19 -26 39 -102 38 -141 -2 -61 -2 -63 -20 -56
-13 5 -12 1 5 -17 15 -16 18 -26 11 -31 -8 -5 -8 -8 0 -13 6 -4 10 -24 10 -44
0 -20 3 -55 6 -77 3 -22 6 -46 7 -52 1 -7 5 -13 10 -13 22 0 -3 -106 -31 -127
-9 -6 -16 -15 -16 -20 -1 -4 -9 -23 -18 -40 -21 -40 -58 -66 -81 -57 -10 4
-16 1 -16 -7 -1 -9 -4 -8 -11 4 -6 9 -15 15 -20 11 -6 -3 -5 -12 3 -22 11 -14
10 -15 -5 -9 -10 4 -21 7 -23 7 -3 0 -2 5 2 12 4 7 3 8 -4 4 -20 -12 -2 -33
51 -61 29 -16 72 -43 96 -62 38 -28 41 -34 25 -40 -11 -4 -31 -15 -46 -26 -14
-11 -31 -17 -36 -13 -9 5 -23 -15 -26 -36 -2 -16 -17 -20 -31 -8 -12 10 -15
10 -15 0 0 -12 -65 -11 -175 3 -105 14 -322 18 -350 6 l-30 -12 30 -9 c17 -5
91 -9 166 -9 130 0 137 -1 147 -22 8 -16 11 -18 11 -6 1 23 49 31 83 14 23
-11 26 -11 21 3 -4 9 -2 13 4 9 6 -4 32 -8 58 -9 26 -1 53 -7 60 -15 8 -7 15
-9 17 -3 5 16 78 -1 78 -18 0 -13 3 -12 15 4 14 19 14 19 16 -1 1 -11 1 -23 0
-28 0 -4 4 -7 9 -7 6 0 10 5 10 12 0 6 2 9 4 7 5 -5 -7 -63 -19 -91 -4 -10 -3
-18 2 -18 4 0 16 18 26 41 14 32 21 38 31 30 11 -9 12 -6 9 16 -4 22 -2 25 6
13 6 -8 11 -32 11 -53 0 -23 4 -36 10 -32 13 8 13 82 0 88 -6 3 -5 4 2 3 7 -1
14 -14 16 -29 2 -14 11 -28 20 -30 15 -4 15 -5 0 -6 -9 0 -21 -15 -27 -32 -13
-39 -13 -39 -1 -39 6 0 10 7 10 14 0 15 42 66 54 66 3 0 6 -9 6 -20 0 -13 5
-18 15 -14 18 7 20 -17 4 -33 -8 -8 -8 -13 0 -17 6 -4 11 -15 10 -24 0 -11 -3
-12 -6 -4 -7 17 -23 15 -23 -3 0 -8 7 -15 15 -15 20 0 20 -50 0 -76 -8 -10
-14 -26 -15 -34 0 -9 3 -11 8 -5 10 13 32 17 32 6 0 -6 -5 -13 -11 -17 -7 -4
-9 -22 -6 -45 5 -41 -12 -77 -31 -65 -8 4 -10 2 -6 -8 3 -8 -1 -25 -9 -37 -9
-12 -13 -28 -10 -37 5 -12 2 -14 -12 -9 -15 6 -17 3 -12 -23 5 -20 3 -29 -6
-27 -6 1 -18 -13 -26 -30 -8 -18 -18 -33 -23 -33 -10 0 -11 24 -1 34 4 3 7 15
8 27 1 12 -2 16 -7 11 -5 -5 -11 -34 -12 -65 -4 -59 -12 -81 -27 -72 -5 4 -12
-1 -15 -9 -12 -31 -32 -15 -53 44 -12 33 -24 60 -26 60 -2 0 -1 -16 2 -35 6
-39 -14 -77 -28 -53 -6 9 -13 7 -27 -10 -11 -12 -22 -22 -26 -22 -3 0 -7 30
-7 68 -1 37 -4 54 -6 37 -2 -16 -5 -39 -8 -50 -5 -25 -77 -68 -99 -59 -10 4
-18 0 -22 -10 -5 -12 -18 -15 -60 -13 -30 2 -54 0 -54 -5 0 -4 8 -8 18 -9 10
0 12 -3 5 -6 -7 -2 -26 2 -42 10 -21 10 -32 12 -40 4 -8 -8 -2 -15 20 -24 20
-8 29 -18 26 -27 -3 -8 -1 -17 6 -19 8 -3 4 -14 -11 -36 -15 -20 -21 -39 -17
-52 4 -13 2 -19 -7 -17 -7 2 -13 -6 -14 -17 0 -11 -8 -38 -18 -59 -9 -22 -14
-46 -12 -53 3 -7 -4 -34 -14 -59 -11 -25 -20 -54 -20 -63 0 -35 -60 -162 -95
-204 l-36 -42 253 -3 c232 -2 254 -1 267 15 13 17 13 17 8 1 -8 -24 21 -24 39
-1 13 17 14 17 8 1 -6 -16 3 -18 94 -18 l100 0 -5 208 c-2 122 -10 236 -19
277 -17 87 -17 94 0 91 26 -4 47 -28 40 -48 -3 -11 1 -27 9 -36 21 -24 31 -76
28 -151 -1 -38 3 -69 10 -78 10 -12 10 -16 -1 -23 -11 -7 -9 -14 12 -35 15
-15 24 -33 21 -41 -3 -9 2 -14 13 -14 16 0 17 -2 4 -10 -8 -5 -10 -10 -5 -10
17 0 12 -70 -5 -70 -12 -1 -12 -3 3 -14 9 -7 17 -21 17 -30 0 -15 78 -16 980
-16 647 0 980 3 980 10 0 6 -5 10 -11 10 -5 0 -8 4 -5 9 6 8 -8 47 -39 117 -8
17 -14 47 -13 66 1 19 -2 40 -6 46 -9 14 40 -2 62 -20 10 -9 16 -8 23 3 6 10
9 10 9 2 0 -7 9 -13 20 -13 12 0 31 -11 44 -25 13 -14 28 -25 35 -25 6 0 11
-7 11 -16 0 -11 6 -13 19 -9 13 4 23 0 30 -12 7 -13 10 565 8 1907 l-2 1924
-25 14 -25 14 28 -6 27 -6 0 565 0 565 -777 0 -778 0 50 -26 c81 -43 76 -48
-8 -10 -68 32 -88 36 -155 36 -76 -1 -77 -1 -43 -15 18 -8 42 -15 52 -15 10 0
21 -5 25 -12 5 -8 2 -9 -11 -4 -10 4 -53 9 -94 12 -42 3 -99 12 -128 19 -37
10 -126 14 -297 15 -231 1 -245 0 -239 -17 5 -15 3 -15 -10 2 -16 20 -16 19
-17 -7z m565 -52 c7 -9 15 -13 18 -9 4 3 7 1 7 -5 0 -7 -10 -22 -22 -34 -13
-13 -17 -23 -10 -26 6 -2 3 -12 -10 -27 -33 -39 -98 -164 -98 -190 0 -24 -58
-128 -92 -164 -17 -18 -46 -40 -65 -47 -18 -8 -33 -17 -33 -20 0 -3 4 -3 9 0
5 3 42 8 82 11 151 11 229 22 229 34 0 4 -37 1 -82 -5 -46 -7 -99 -13 -118
-13 l-35 -1 41 19 c22 10 72 28 111 41 l69 22 68 109 c60 97 95 139 118 139 5
0 8 -5 8 -11 0 -5 -5 -7 -12 -3 -8 5 -9 2 -5 -10 4 -10 3 -15 -3 -11 -6 3 -10
0 -10 -8 0 -25 -86 -200 -114 -234 -27 -32 -22 -42 13 -24 9 5 39 12 67 16 27
3 66 9 86 14 22 5 36 5 32 0 -3 -5 9 -9 25 -9 17 0 31 1 31 3 0 1 9 27 20 57
10 30 19 46 20 34 0 -11 -7 -41 -16 -66 -16 -49 -32 -57 -113 -59 -28 0 -32
-2 -16 -8 11 -5 39 -6 63 -4 26 3 42 0 42 -6 0 -7 -27 -11 -69 -11 -38 0 -77
-3 -87 -7 -12 -4 -15 -2 -12 8 3 8 14 13 24 11 15 -2 16 -1 4 6 -8 5 -42 6
-75 2 -60 -7 -60 -7 -12 -9 47 -1 63 -14 28 -24 -10 -2 -34 -3 -53 -1 -18 2
-40 1 -48 -2 -8 -3 -49 -7 -91 -8 -41 -1 -80 -6 -86 -9 -7 -4 -14 -3 -17 2 -4
6 -18 6 -36 1 -17 -5 -30 -6 -30 -4 0 3 -6 2 -12 -3 -7 -4 -26 -8 -43 -9 -16
-1 -70 -9 -119 -18 -49 -9 -103 -16 -122 -16 -18 0 -44 -4 -58 -10 -14 -5 -26
-6 -26 -1 0 5 35 21 78 35 145 51 157 57 213 109 75 70 103 112 140 204 57
145 108 245 120 237 8 -4 9 -3 5 4 -4 7 -5 16 -2 20 8 14 69 5 81 -12z m355
-12 c0 -8 -4 -12 -10 -9 -5 3 -10 10 -10 16 0 5 5 9 10 9 6 0 10 -7 10 -16z
m-82 -125 c-72 -85 -100 -115 -91 -97 9 19 122 148 129 148 3 0 -14 -23 -38
-51z m89 -111 c-3 -8 -6 -5 -6 6 -1 11 2 17 5 13 3 -3 4 -12 1 -19z m-199 -28
c-7 -10 -14 -17 -17 -15 -4 4 18 35 25 35 2 0 -1 -9 -8 -20z m189 -22 c-3 -7
-5 -2 -5 12 0 14 2 19 5 13 2 -7 2 -19 0 -25z m86 -205 c-7 -2 -19 -2 -25 0
-7 3 -2 5 12 5 14 0 19 -2 13 -5z m-273 -164 c-7 -11 -18 -18 -25 -15 -8 3
-29 1 -47 -5 -18 -5 -55 -12 -83 -15 -68 -6 -85 -13 -85 -30 0 -11 10 -14 40
-11 22 2 43 6 46 10 4 4 13 2 19 -3 8 -6 30 -7 61 -1 52 10 78 -3 49 -25 -8
-6 -15 -17 -16 -25 0 -8 -4 -5 -8 6 -6 16 -15 19 -47 16 -21 -1 -42 -7 -45
-13 -4 -5 -9 -3 -12 5 -5 12 -18 15 -61 11 -56 -4 -67 1 -44 24 17 17 0 28
-23 14 -11 -7 -24 -10 -28 -7 -5 3 -21 -1 -36 -9 -15 -8 -33 -12 -40 -9 -8 2
-24 -1 -36 -7 -12 -7 -45 -12 -72 -11 -37 0 -63 -6 -95 -24 -46 -26 -67 -32
-57 -16 3 6 -8 5 -27 -1 -46 -14 -109 -27 -133 -27 -19 0 -19 0 -2 13 9 7 17
18 17 24 0 6 4 14 10 17 5 3 7 0 4 -8 -3 -8 1 -14 10 -14 8 0 13 3 11 7 -2 3
5 12 17 19 12 7 17 8 13 1 -4 -7 3 -9 22 -6 90 17 98 19 155 46 14 7 31 9 36
6 6 -4 16 2 22 11 10 17 11 17 22 1 11 -15 15 -15 52 -1 23 9 45 20 50 24 5 5
15 4 23 -2 9 -8 21 -8 40 -1 27 10 51 15 153 28 25 3 68 9 95 14 28 4 54 8 58
9 4 0 3 -8 -3 -20z m160 -14 c0 -21 -3 -24 -17 -16 -10 5 -42 7 -71 4 -41 -3
-53 -1 -50 9 3 9 25 13 66 13 34 -1 62 3 62 7 0 4 2 8 5 8 3 0 5 -11 5 -25z
m-1075 -60 c26 -8 63 -25 83 -37 35 -21 35 -22 13 -32 -16 -7 -25 -6 -30 3 -6
9 -11 8 -21 -4 -7 -8 -17 -15 -22 -15 -6 0 -5 7 2 15 7 9 10 18 6 22 -3 3 -6
1 -6 -6 0 -7 -6 -11 -14 -8 -8 3 -17 1 -20 -6 -2 -7 -5 -4 -5 7 -1 12 -6 16
-16 12 -8 -3 -15 -1 -15 5 0 6 -7 9 -15 5 -8 -3 -15 -2 -15 3 0 12 -47 31 -76
31 -14 0 -23 -4 -19 -9 3 -5 1 -12 -4 -15 -5 -4 -12 -2 -16 4 -4 6 -12 5 -21
-5 -9 -8 -24 -15 -34 -15 -10 0 -22 -5 -25 -10 -4 -6 -11 -8 -16 -5 -5 4 -9 1
-9 -6 0 -8 11 -10 35 -6 19 3 35 2 35 -2 0 -12 -43 -19 -96 -17 -28 1 -44 -2
-44 -10 0 -7 -8 -10 -19 -7 -18 4 -44 -3 -161 -49 -19 -7 -61 -38 -94 -68 -32
-30 -64 -54 -72 -54 -8 1 -14 -4 -14 -12 0 -18 -10 -17 -34 1 -17 13 -14 18
55 84 40 39 77 71 81 71 4 0 17 8 27 18 46 41 53 45 60 33 8 -13 69 13 87 37
6 9 18 13 28 9 9 -4 16 -1 16 6 0 7 10 13 23 14 46 3 112 13 127 19 8 4 33 9
55 11 22 3 42 7 45 10 8 7 101 -6 155 -22z m625 -15 c0 -5 -4 -10 -10 -10 -5
0 -10 5 -10 10 0 6 5 10 10 10 6 0 10 -4 10 -10z m474 -19 c33 -9 61 -22 64
-30 3 -9 0 -11 -8 -6 -20 12 -81 25 -140 30 -73 6 -100 13 -100 26 0 13 103 2
184 -20z m-534 -21 c0 -23 10 -26 28 -8 15 15 53 18 68 7 6 -5 35 -11 65 -13
30 -2 54 -5 54 -6 0 -1 17 -3 38 -5 22 -2 37 1 37 8 0 6 6 4 13 -5 7 -10 36
-18 74 -22 34 -4 94 -16 135 -27 40 -12 84 -23 97 -25 13 -3 33 -12 45 -21 16
-12 17 -14 3 -9 -60 20 -149 38 -194 40 -29 0 -53 3 -53 6 0 3 -10 6 -22 7
-44 3 -93 11 -111 18 -9 4 -24 2 -31 -4 -9 -8 -16 -8 -20 -2 -4 5 -24 9 -46 8
-22 -2 -41 1 -43 6 -1 5 -39 10 -82 12 -44 2 -82 4 -85 5 -3 1 -13 3 -22 4
-10 0 -18 4 -18 9 0 4 0 12 0 18 0 6 9 9 20 6 11 -3 23 -1 26 4 10 16 24 10
24 -11z m-706 -5 c5 -14 -38 -27 -60 -18 -10 4 -10 8 -1 18 15 16 54 16 61 0z
m566 -5 c0 -16 -7 -20 -35 -20 -40 0 -46 16 -12 30 35 14 47 12 47 -10z m48
-1 c1 -9 -6 -15 -18 -16 -11 -1 -20 4 -20 11 0 29 32 33 38 5z m-523 1 c3 -5
0 -10 -9 -10 -8 0 -23 -3 -33 -6 -16 -5 -16 -4 1 10 23 19 32 20 41 6z m1058
-15 c-3 -9 -8 -14 -10 -11 -3 3 -2 9 2 15 9 16 15 13 8 -4z m237 -17 c0 -5 -9
-3 -20 4 -11 7 -20 16 -20 20 0 5 9 3 20 -4 11 -7 20 -16 20 -20z m-755 -22
c55 -3 127 -9 160 -12 33 -4 74 -7 90 -8 17 0 33 -5 37 -10 3 -5 19 -10 35
-12 15 -1 60 -5 98 -8 39 -3 81 -9 95 -13 14 -3 28 -7 33 -8 4 -2 10 -3 15 -4
4 -2 -2 -6 -13 -10 -11 -5 -25 -4 -32 1 -7 5 -37 11 -67 13 -30 2 -59 6 -64 9
-6 3 -16 -2 -23 -11 -12 -14 -12 -16 0 -9 8 5 16 4 21 -4 4 -7 30 -13 61 -14
30 0 57 -4 60 -9 12 -16 175 -5 189 13 3 3 50 2 105 -2 164 -15 225 -16 325
-6 219 21 536 5 547 -27 4 -12 -106 -13 -124 -2 -6 4 -68 7 -139 8 l-129 1
-90 -40 c-49 -22 -103 -43 -120 -46 l-30 -6 33 31 c19 17 31 33 28 36 -3 3
-30 6 -61 7 -41 1 -60 -3 -68 -15 -15 -19 -47 -32 -47 -18 0 6 -4 8 -10 4 -5
-3 -7 -12 -3 -20 3 -8 1 -15 -5 -15 -5 0 -12 10 -16 23 -5 18 -8 20 -16 7 -6
-10 -10 -11 -10 -3 0 9 -7 10 -26 3 -36 -14 -44 -13 -44 8 0 9 -4 13 -8 7 -4
-5 -45 -11 -92 -12 -47 -2 -98 -3 -115 -5 -16 -1 -52 2 -78 6 -38 6 -54 4 -74
-9 -28 -19 -42 -13 -23 10 11 13 8 15 -16 16 -16 0 -47 2 -69 5 -64 7 -95 -4
-95 -31 0 -34 -20 -42 -21 -8 -2 25 -2 26 -6 4 -3 -13 0 -28 6 -34 6 -6 11
-18 11 -27 -1 -12 -4 -11 -15 4 -14 18 -15 16 -15 -27 0 -26 -4 -47 -10 -47
-5 0 -10 6 -10 13 0 8 -4 7 -10 -3 -7 -11 -10 -3 -9 30 0 25 3 39 6 33 2 -7 9
-13 14 -13 6 0 8 4 5 9 -4 5 -1 22 4 37 8 19 8 30 0 38 -7 7 -10 0 -10 -22 0
-22 -5 -32 -15 -32 -8 0 -15 -6 -15 -12 0 -9 -4 -8 -10 2 -7 11 -10 5 -10 -22
0 -21 -4 -38 -8 -38 -5 0 -7 -15 -6 -32 l3 -33 -9 35 c-5 19 -12 65 -15 102
l-7 68 -31 -5 c-18 -3 -50 -7 -72 -11 -22 -3 -48 -6 -57 -7 -10 -1 -23 -15
-30 -31 -10 -26 -13 -27 -19 -10 -7 17 -8 17 -8 -3 -1 -12 3 -24 7 -27 4 -3 6
-21 4 -40 -4 -33 -10 -38 -39 -35 -4 0 -10 -7 -13 -17 -6 -16 -7 -16 -12 2 -4
16 0 20 20 22 35 3 42 12 9 12 -14 0 -29 5 -33 11 -4 8 1 9 17 5 13 -3 18 -3
12 0 -18 8 -16 24 2 24 9 0 15 9 14 23 -1 16 -2 18 -6 5 -6 -24 -23 -23 -23 2
0 11 5 20 10 20 6 0 10 5 10 11 0 8 -5 8 -15 -1 -8 -7 -15 -21 -15 -31 0 -11
-4 -19 -10 -19 -5 0 -8 6 -6 13 3 6 7 24 10 38 l6 26 -63 -2 c-34 -2 -79 -4
-99 -4 -34 -1 -38 -4 -38 -26 0 -15 -5 -24 -12 -22 -9 1 -15 -15 -18 -48 l-4
-50 -6 60 -7 60 -2 -65 c-2 -64 -2 -65 -16 -35 -10 19 -13 22 -9 8 3 -13 1
-23 -5 -23 -7 0 -11 27 -11 70 0 49 -4 70 -12 71 -7 0 -31 3 -53 5 -42 5 -195
13 -254 13 -22 0 -39 -7 -52 -22 -16 -20 -18 -20 -19 -4 0 10 5 15 10 12 6 -3
10 -2 10 3 0 6 -31 8 -72 7 -78 -4 -166 -31 -202 -61 -11 -10 -22 -17 -24 -16
-1 1 -25 -7 -53 -19 -55 -24 -89 -70 -69 -94 14 -17 79 -33 171 -42 69 -7 71
-8 34 -14 -22 -4 -74 -15 -115 -24 -41 -10 -82 -18 -90 -19 -8 -1 -25 -7 -36
-14 -19 -10 -22 -9 -27 13 -2 14 0 28 4 31 5 3 16 31 25 62 12 42 28 68 58 97
22 21 33 36 24 33 -9 -4 -19 -4 -21 0 -2 4 -2 2 -1 -5 2 -6 -4 -14 -13 -17
-11 -5 -14 -2 -9 10 3 8 6 20 6 26 0 6 6 8 14 5 9 -4 21 5 31 19 13 21 19 23
31 13 8 -7 13 -18 10 -26 -3 -7 -1 -13 5 -13 5 0 12 7 15 15 4 8 11 12 17 8 6
-3 7 -1 3 6 -4 6 -3 18 4 26 8 10 8 15 -1 20 -12 8 6 25 26 25 6 0 3 -5 -5
-10 -13 -9 -13 -11 0 -20 13 -9 13 -11 0 -20 -17 -11 -10 -13 14 -4 11 4 14
13 10 30 -7 27 18 64 43 64 7 0 13 4 13 9 0 9 53 30 145 58 92 27 580 38 890
19z m-1365 -86 c0 -5 -2 -10 -4 -10 -3 0 -8 5 -11 10 -3 6 -1 10 4 10 6 0 11
-4 11 -10z m1991 0 c6 0 8 -4 5 -9 -8 -12 -46 -2 -46 11 0 6 7 7 16 4 9 -3 20
-6 25 -6z m-2055 -35 c-15 -16 -14 -51 3 -68 7 -7 14 -1 20 16 6 15 13 27 15
27 3 0 3 -6 0 -13 -4 -11 5 -12 43 -6 66 11 73 11 73 -2 0 -6 -9 -9 -20 -6
-11 3 -23 1 -26 -4 -3 -5 -10 -7 -15 -4 -12 8 -11 -6 1 -25 5 -8 10 -10 10 -5
0 12 37 18 44 7 2 -4 -2 -13 -10 -20 -8 -7 -14 -8 -14 -2 0 5 -4 10 -10 10
-12 0 -8 -43 5 -52 5 -4 6 -10 2 -15 -5 -4 -12 -1 -18 7 -8 13 -10 13 -20 0
-12 -16 -12 -18 5 38 5 13 3 22 -3 22 -11 0 -15 -13 -12 -37 1 -7 -7 -13 -19
-13 -21 0 -27 -19 -11 -35 6 -6 4 -15 -4 -23 -12 -10 -16 -8 -25 8 -7 14 -7
20 0 20 5 0 10 5 10 11 0 5 -4 7 -10 4 -5 -3 -10 -1 -10 4 0 6 5 11 10 11 14
0 12 22 -5 44 -8 10 -19 15 -26 11 -8 -6 -7 -10 5 -17 9 -5 16 -14 16 -19 0
-6 -4 -7 -10 -4 -6 4 -7 -1 -3 -11 5 -13 2 -15 -14 -10 -17 6 -20 3 -15 -19 2
-14 8 -25 13 -25 5 0 6 7 3 15 -4 8 -1 15 7 15 7 0 9 -3 6 -7 -4 -3 0 -15 10
-25 9 -10 13 -21 9 -25 -4 -4 -10 -3 -14 3 -4 6 -15 14 -25 17 -11 4 -21 16
-24 27 -3 11 -9 20 -14 20 -5 0 -3 -16 5 -35 8 -19 11 -35 5 -35 -5 0 -9 4 -9
8 0 5 -7 17 -16 28 -15 19 -15 19 -5 -1 11 -24 6 -188 -7 -211 -8 -14 -12 -12
-31 12 -12 15 -19 34 -16 41 2 8 1 11 -4 8 -11 -6 -65 68 -81 109 -9 26 2 37
15 15 5 -6 12 -3 21 9 8 11 35 30 61 43 26 12 41 25 35 27 -7 2 -19 -2 -27 -8
-10 -8 -15 -9 -15 -2 0 6 10 18 22 26 19 13 23 13 32 0 9 -12 11 -10 11 11 0
14 -6 25 -12 25 -7 0 -13 -5 -13 -11 0 -6 -6 -9 -12 -6 -7 2 -21 -2 -31 -11
-9 -8 -20 -13 -23 -10 -8 9 104 100 116 93 5 -3 10 1 10 9 0 8 8 20 18 25 26
15 36 13 18 -4z m2909 -25 c3 -5 -1 -10 -9 -10 -9 0 -16 5 -16 10 0 6 4 10 9
10 6 0 13 -4 16 -10z m-35 -20 c0 -5 -4 -10 -10 -10 -5 0 -10 5 -10 10 0 6 5
10 10 10 6 0 10 -4 10 -10z m-2600 -21 c0 -5 -4 -9 -10 -9 -5 0 -10 7 -10 16
0 8 5 12 10 9 6 -3 10 -10 10 -16z m2200 -9 c-14 -11 -31 -20 -39 -20 -17 0
-11 7 26 30 36 22 45 14 13 -10z m920 10 c14 -26 -1 -26 -31 0 l-24 19 22 1
c12 0 27 -9 33 -20z m-3216 -6 c3 -8 2 -12 -4 -9 -6 3 -10 10 -10 16 0 14 7
11 14 -7z m3313 10 c-3 -3 -12 -4 -19 -1 -8 3 -5 6 6 6 11 1 17 -2 13 -5z
m-3147 -48 c0 -3 -4 -8 -10 -11 -5 -3 -10 -1 -10 4 0 6 5 11 10 11 6 0 10 -2
10 -4z m677 -38 c-3 -8 -6 -5 -6 6 -1 11 2 17 5 13 3 -3 4 -12 1 -19z m-880
-10 c-3 -8 -6 -5 -6 6 -1 11 2 17 5 13 3 -3 4 -12 1 -19z m-73 -14 c9 -24 2
-26 -12 -4 -7 11 -8 20 -3 20 5 0 12 -7 15 -16z m-304 -65 c0 -6 -4 -7 -10 -4
-5 3 -10 11 -10 16 0 6 5 7 10 4 6 -3 10 -11 10 -16z m190 -9 c0 -5 -5 -10
-11 -10 -5 0 -7 5 -4 10 3 6 8 10 11 10 2 0 4 -4 4 -10z m-449 -152 c11 -21
11 -22 -4 -9 -10 7 -17 17 -17 22 0 15 9 10 21 -13z m-298 -35 c-7 -2 -19 -2
-25 0 -7 3 -2 5 12 5 14 0 19 -2 13 -5z m1091 -238 c3 -8 1 -15 -3 -15 -5 0
-11 7 -15 15 -3 8 -1 15 3 15 5 0 11 -7 15 -15z m-72 -75 c-2 -16 -7 -30 -11
-30 -4 0 -6 14 -3 30 2 17 7 30 11 30 4 0 6 -13 3 -30z m78 26 c0 -3 -4 -8
-10 -11 -5 -3 -10 -1 -10 4 0 6 5 11 10 11 6 0 10 -2 10 -4z m58 -37 c-6 -16
-13 -28 -15 -25 -8 8 6 56 17 56 5 0 5 -13 -2 -31z m-1804 -25 c3 -8 2 -12 -4
-9 -6 3 -10 10 -10 16 0 14 7 11 14 -7z m1516 -8 c0 -3 -4 -8 -10 -11 -5 -3
-10 -1 -10 4 0 6 5 11 10 11 6 0 10 -2 10 -4z m360 -16 c0 -5 -9 -10 -19 -12
-18 -3 -18 -5 -5 -23 10 -13 17 -16 22 -9 4 6 21 16 39 22 30 10 32 10 21 -8
-17 -27 -69 -32 -92 -9 -20 18 -20 19 0 37 18 19 34 20 34 2z m140 8 c0 -4 -4
-8 -9 -8 -5 0 -17 -3 -27 -7 -16 -6 -17 -5 -4 8 15 17 40 21 40 7z m-1880 -8
c0 -5 -5 -10 -11 -10 -5 0 -7 5 -4 10 3 6 8 10 11 10 2 0 4 -4 4 -10z m1292
-22 c-6 -6 -15 -8 -19 -4 -4 4 -1 11 7 16 19 12 27 3 12 -12z m768 2 c6 -11 8
-20 6 -20 -3 0 -10 9 -16 20 -6 11 -8 20 -6 20 3 0 10 -9 16 -20z m641 6 c5 3
9 0 9 -6 0 -15 -23 -7 -26 8 -1 7 0 8 3 2 2 -5 9 -8 14 -4z m-1501 -6 c0 -5
-5 -10 -11 -10 -5 0 -7 5 -4 10 3 6 8 10 11 10 2 0 4 -4 4 -10z m138 -10 c-7
-11 -16 -20 -20 -20 -11 0 -10 9 5 25 18 21 29 18 15 -5z m152 10 c0 -5 -5
-10 -11 -10 -5 0 -7 5 -4 10 3 6 8 10 11 10 2 0 4 -4 4 -10z m1074 -5 c3 -8 1
-15 -4 -15 -6 0 -10 7 -10 15 0 8 2 15 4 15 2 0 6 -7 10 -15z m-554 -5 c0 -5
-4 -10 -10 -10 -5 0 -10 5 -10 10 0 6 5 10 10 10 6 0 10 -4 10 -10z m-753 -6
c-3 -3 -12 -4 -19 -1 -8 3 -5 6 6 6 11 1 17 -2 13 -5z m403 -24 c0 -5 -7 -7
-15 -4 -8 4 -15 2 -15 -4 0 -6 6 -13 13 -15 6 -3 8 -6 2 -6 -5 0 -17 4 -25 9
-13 8 -12 11 5 24 20 14 35 13 35 -4z m-1670 -30 c0 -6 -9 -2 -20 7 -11 10
-20 19 -20 21 0 1 9 -2 20 -8 11 -6 20 -15 20 -20z m1170 15 c0 -8 -7 -15 -16
-15 -14 0 -14 3 -4 15 7 8 14 15 16 15 2 0 4 -7 4 -15z m-105 -5 c3 -6 -1 -7
-9 -4 -18 7 -21 14 -7 14 6 0 13 -4 16 -10z m649 -19 c-2 -3 -12 3 -22 13 -16
17 -16 18 5 5 12 -7 20 -15 17 -18z m-940 -16 c3 -8 1 -15 -4 -15 -6 0 -10 7
-10 15 0 8 2 15 4 15 2 0 6 -7 10 -15z m416 0 c0 -8 -2 -15 -4 -15 -2 0 -6 7
-10 15 -3 8 -1 15 4 15 6 0 10 -7 10 -15z m-1257 -2 c-13 -2 -35 -2 -50 0 -16
2 -5 4 22 4 28 0 40 -2 28 -4z m47 -3 c0 -5 -4 -10 -10 -10 -5 0 -10 5 -10 10
0 6 5 10 10 10 6 0 10 -4 10 -10z m530 7 c0 -2 -10 -12 -22 -23 l-23 -19 19
23 c18 21 26 27 26 19z m1165 -26 c-3 -6 -11 -11 -16 -11 -5 0 -4 6 3 14 14
16 24 13 13 -3z m-505 -1 c0 -6 12 -22 28 -35 24 -21 25 -24 7 -22 -21 1 -64
67 -45 67 6 0 10 -5 10 -10z m-710 -4 c0 -3 -4 -8 -10 -11 -5 -3 -10 -1 -10 4
0 6 5 11 10 11 6 0 10 -2 10 -4z m190 -5 c0 -6 -4 -13 -10 -16 -5 -3 -10 1
-10 9 0 9 5 16 10 16 6 0 10 -4 10 -9z m50 -1 c0 -5 -4 -10 -10 -10 -5 0 -10
-7 -10 -17 0 -9 -3 -14 -6 -10 -8 8 5 47 17 47 5 0 9 -4 9 -10z m182 -12 c-7
-7 -12 -8 -12 -2 0 14 12 26 19 19 2 -3 -1 -11 -7 -17z m175 2 c-1 -11 -5 -20
-9 -20 -3 0 -6 9 -5 20 1 11 5 20 9 20 3 0 6 -9 5 -20z m83 16 c0 -3 -4 -8
-10 -11 -5 -3 -10 -1 -10 4 0 6 5 11 10 11 6 0 10 -2 10 -4z m2793 -11 c-3 -9
-8 -14 -10 -11 -3 3 -2 9 2 15 9 16 15 13 8 -4z m-2823 -10 c11 -13 10 -14 -4
-9 -9 3 -16 10 -16 15 0 13 6 11 20 -6z m1093 1 c3 -8 -1 -17 -9 -20 -9 -4
-14 1 -14 14 0 23 15 27 23 6z m-1253 -16 c6 -11 8 -20 6 -20 -3 0 -10 9 -16
20 -6 11 -8 20 -6 20 3 0 10 -9 16 -20z m753 4 c9 -9 -4 -35 -14 -28 -5 3 -9
12 -9 20 0 14 12 19 23 8z m-1227 -31 c21 -28 16 -36 -10 -16 -13 10 -22 21
-19 26 7 11 15 8 29 -10z m224 -3 c0 -5 -4 -10 -10 -10 -5 0 -10 5 -10 10 0 6
5 10 10 10 6 0 10 -4 10 -10z m977 -29 c0 -10 -7 -17 -13 -14 -7 3 -10 11 -7
19 8 20 22 17 20 -5z m196 -11 c3 -12 1 -18 -5 -14 -6 4 -15 0 -20 -7 -8 -11
-8 -10 -4 4 3 10 6 23 6 28 0 17 18 9 23 -11z m-43 0 c0 -5 -5 -10 -11 -10 -5
0 -7 5 -4 10 3 6 8 10 11 10 2 0 4 -4 4 -10z m-1715 -10 c-3 -5 -11 -10 -16
-10 -6 0 -7 5 -4 10 3 6 11 10 16 10 6 0 7 -4 4 -10z m752 -12 c-3 -8 -6 -5
-6 6 -1 11 2 17 5 13 3 -3 4 -12 1 -19z m253 12 c0 -5 -2 -10 -4 -10 -3 0 -8
5 -11 10 -3 6 -1 10 4 10 6 0 11 -4 11 -10z m90 0 c0 -5 -4 -10 -10 -10 -5 0
-10 5 -10 10 0 6 5 10 10 10 6 0 10 -4 10 -10z m-1070 -25 c-7 -9 -15 -13 -18
-10 -3 2 1 11 8 20 7 9 15 13 18 10 3 -2 -1 -11 -8 -20z m-105 5 c-3 -5 -11
-10 -16 -10 -6 0 -7 5 -4 10 3 6 11 10 16 10 6 0 7 -4 4 -10z m45 5 c0 -8 -43
-45 -53 -45 -11 0 34 50 46 50 4 0 7 -2 7 -5z m965 -5 c3 -5 1 -10 -4 -10 -6
0 -11 5 -11 10 0 6 2 10 4 10 3 0 8 -4 11 -10z m320 -10 c4 -6 1 -9 -7 -8 -8
2 -12 -4 -10 -14 2 -11 -3 -18 -13 -18 -16 0 -14 9 8 38 12 15 14 15 22 2z
m-1455 -15 c0 -8 -4 -15 -10 -15 -5 0 -7 7 -4 15 4 8 8 15 10 15 2 0 4 -7 4
-15z m-79 -26 c-5 -13 -10 -19 -10 -12 -1 15 10 45 15 40 3 -2 0 -15 -5 -28z
m1346 9 c-3 -8 -6 -5 -6 6 -1 11 2 17 5 13 3 -3 4 -12 1 -19z m2873 2 c6 -11
8 -20 6 -20 -3 0 -10 9 -16 20 -6 11 -8 20 -6 20 3 0 10 -9 16 -20z m-4060 6
c0 -3 -4 -8 -10 -11 -5 -3 -10 -1 -10 4 0 6 5 11 10 11 6 0 10 -2 10 -4z
m1018 -17 c-2 -6 -8 -10 -13 -10 -5 0 -11 4 -13 10 -2 6 4 11 13 11 9 0 15 -5
13 -11z m-1125 -14 c-3 -9 -8 -14 -10 -11 -3 3 -2 9 2 15 9 16 15 13 8 -4z
m151 1 c-6 -17 -34 -29 -43 -20 -3 4 0 9 7 11 6 3 10 9 6 14 -3 5 4 9 15 9 14
0 19 -5 15 -14z m826 -16 c-28 -28 -36 -20 -9 9 12 12 23 20 26 17 2 -2 -5
-14 -17 -26z m50 20 c0 -5 -2 -10 -4 -10 -3 0 -8 5 -11 10 -3 6 -1 10 4 10 6
0 11 -4 11 -10z m270 -40 c0 -15 -5 -12 -26 11 -19 22 -19 22 4 10 12 -6 22
-16 22 -21z m3050 20 c0 -5 -5 -10 -11 -10 -5 0 -7 5 -4 10 3 6 8 10 11 10 2
0 4 -4 4 -10z m-2960 -5 c0 -2 -10 -10 -22 -16 -21 -11 -22 -11 -9 4 13 16 31
23 31 12z m2852 -20 c3 -13 1 -22 -3 -19 -9 5 -13 44 -5 44 2 0 6 -11 8 -25z
m-3237 -14 c-3 -12 -18 -22 -38 -26 -18 -4 -40 -14 -49 -23 -27 -23 -21 -1 8
33 16 18 24 23 20 12 -4 -13 -2 -17 6 -13 7 3 21 9 31 12 9 4 17 13 17 22 0 8
3 13 6 9 3 -3 3 -15 -1 -26z m1255 19 c0 -5 -4 -10 -10 -10 -5 0 -10 5 -10 10
0 6 5 10 10 10 6 0 10 -4 10 -10z m2157 -12 c-3 -8 -6 -5 -6 6 -1 11 2 17 5
13 3 -3 4 -12 1 -19z m47 7 c11 -8 18 -17 15 -19 -2 -3 -15 4 -29 14 -14 11
-20 20 -15 19 6 0 19 -6 29 -14z m-3341 -20 c-7 -21 -13 -19 -13 6 0 11 4 18
10 14 5 -3 7 -12 3 -20z m-83 0 c0 -8 -4 -15 -10 -15 -5 0 -7 7 -4 15 4 8 8
15 10 15 2 0 4 -7 4 -15z m3170 5 c0 -5 -5 -10 -11 -10 -5 0 -7 5 -4 10 3 6 8
10 11 10 2 0 4 -4 4 -10z m-3144 -50 c-25 -38 -24 -54 2 -28 19 19 14 -2 -8
-29 -15 -20 -20 -22 -20 -9 0 9 -10 21 -22 26 -14 5 -17 9 -8 10 8 0 28 19 43
41 36 53 49 42 13 -11z m179 40 c3 -5 1 -10 -4 -10 -6 0 -11 5 -11 10 0 6 2
10 4 10 3 0 8 -4 11 -10z m-1315 -36 c0 -18 -28 -24 -34 -8 -3 9 -1 12 4 9 6
-3 10 -1 10 4 0 6 -7 11 -16 11 -8 0 -12 4 -9 10 7 12 45 -10 45 -26z m4110
32 c0 -3 -4 -8 -10 -11 -5 -3 -10 -1 -10 4 0 6 5 11 10 11 6 0 10 -2 10 -4z
m284 -35 c-6 -6 -24 19 -24 34 1 6 7 1 15 -9 8 -11 12 -22 9 -25z m326 18 c0
-6 9 -8 23 -4 18 5 19 4 5 -4 -11 -8 -25 -7 -50 4 -33 14 -33 14 -5 15 15 0
27 -5 27 -11z m-3634 -25 c-17 -16 -36 -19 -36 -4 0 6 7 10 15 10 8 0 15 5 15
11 0 5 5 7 10 4 6 -4 5 -12 -4 -21z m3207 -7 c-11 -12 -23 -31 -27 -41 -3 -10
-9 -16 -12 -13 -7 6 12 44 34 70 8 9 18 15 20 12 3 -3 -4 -15 -15 -28z m327
18 c0 -8 -2 -15 -4 -15 -2 0 -6 7 -10 15 -3 8 -1 15 4 15 6 0 10 -7 10 -15z
m-43 -1 c-3 -3 -12 -4 -19 -1 -8 3 -5 6 6 6 11 1 17 -2 13 -5z m-3373 -20 c3
-8 2 -13 -3 -10 -5 3 -12 -1 -15 -10 -4 -9 -9 -14 -12 -11 -5 5 13 47 20 47 2
0 7 -7 10 -16z m3581 6 c3 -5 1 -10 -4 -10 -6 0 -11 5 -11 10 0 6 2 10 4 10 3
0 8 -4 11 -10z m-3745 -32 c0 -16 -3 -19 -11 -11 -6 6 -8 16 -5 22 11 17 16
13 16 -11z m290 18 c0 -2 -7 -9 -15 -16 -13 -11 -14 -10 -9 4 5 14 24 23 24
12z m3440 -16 c8 -5 11 -10 5 -10 -5 0 -17 5 -25 10 -8 5 -10 10 -5 10 6 0 17
-5 25 -10z m95 -18 c-3 -3 -11 0 -18 7 -9 10 -8 11 6 5 10 -3 15 -9 12 -12z
m-3655 4 c0 -2 -7 -16 -14 -32 -16 -30 -12 -48 10 -40 17 7 18 1 2 -24 -16
-26 -2 -39 17 -14 13 17 14 17 15 2 0 -9 -7 -21 -16 -26 -11 -6 -15 -18 -12
-34 3 -15 0 -25 -8 -25 -8 0 -11 12 -8 34 4 31 3 33 -16 23 -13 -7 -20 -7 -20
0 0 5 6 10 13 11 10 0 10 2 0 6 -7 2 -13 9 -13 14 0 4 7 6 16 2 14 -5 15 -3 5
15 -15 27 -14 59 2 77 11 13 27 20 27 11z m2981 -33 c-12 -20 -14 -14 -5 12 4
9 9 14 11 11 3 -2 0 -13 -6 -23z m464 17 c3 -5 1 -10 -4 -10 -6 0 -11 5 -11
10 0 6 2 10 4 10 3 0 8 -4 11 -10z m90 0 c3 -5 1 -10 -4 -10 -6 0 -11 5 -11
10 0 6 2 10 4 10 3 0 8 -4 11 -10z m-3455 -10 c0 -5 -4 -10 -10 -10 -5 0 -10
5 -10 10 0 6 5 10 10 10 6 0 10 -4 10 -10z m3334 -15 c3 -8 1 -15 -3 -15 -5 0
-11 7 -15 15 -3 8 -1 15 3 15 5 0 11 -7 15 -15z m-3537 -17 c-3 -8 -6 -5 -6 6
-1 11 2 17 5 13 3 -3 4 -12 1 -19z m43 12 c0 -5 -4 -10 -10 -10 -5 0 -10 5
-10 10 0 6 5 10 10 10 6 0 10 -4 10 -10z m3700 0 c0 -5 -2 -10 -4 -10 -3 0 -8
5 -11 10 -3 6 -1 10 4 10 6 0 11 -4 11 -10z m-3810 -52 c0 -18 -2 -20 -9 -8
-6 8 -7 18 -5 22 9 14 14 9 14 -14z m60 2 c0 -5 -5 -10 -11 -10 -5 0 -7 5 -4
10 3 6 8 10 11 10 2 0 4 -4 4 -10z m3858 -15 c-3 -3 -9 2 -12 12 -6 14 -5 15
5 6 7 -7 10 -15 7 -18z m-3794 -1 c4 -10 1 -14 -6 -12 -15 5 -23 28 -10 28 5
0 13 -7 16 -16z m3256 -39 c0 -8 -2 -15 -4 -15 -2 0 -6 7 -10 15 -3 8 -1 15 4
15 6 0 10 -7 10 -15z m310 5 c0 -5 -2 -10 -4 -10 -3 0 -8 5 -11 10 -3 6 -1 10
4 10 6 0 11 -4 11 -10z m-32 -25 c-3 -3 -9 2 -12 12 -6 14 -5 15 5 6 7 -7 10
-15 7 -18z m-3573 6 c3 -5 1 -12 -5 -16 -5 -3 -10 1 -10 9 0 18 6 21 15 7z
m67 -15 c3 -14 2 -30 -2 -36 -4 -6 -7 5 -8 25 -2 40 4 46 10 11z m3213 -6 c3
-5 1 -10 -4 -10 -6 0 -11 5 -11 10 0 6 2 10 4 10 3 0 8 -4 11 -10z m260 0 c3
-5 1 -10 -4 -10 -6 0 -11 5 -11 10 0 6 2 10 4 10 3 0 8 -4 11 -10z m100 -9 c3
-5 1 -12 -5 -16 -5 -3 -10 1 -10 9 0 18 6 21 15 7z m-379 -28 c-7 -7 -26 7
-26 19 0 6 6 6 15 -2 9 -7 13 -15 11 -17z m344 18 c0 -5 3 -18 6 -28 5 -16 4
-16 -10 1 -18 23 -20 36 -6 36 6 0 10 -4 10 -9z m-185 -10 c3 -5 2 -12 -3 -15
-5 -3 -9 1 -9 9 0 17 3 19 12 6z m-3400 -10 c3 -5 1 -12 -5 -16 -5 -3 -10 1
-10 9 0 18 6 21 15 7z m3369 -32 c-5 -9 -44 11 -44 23 0 4 11 3 25 -4 13 -6
22 -15 19 -19z m-3269 11 c3 -5 2 -10 -4 -10 -5 0 -13 5 -16 10 -3 6 -2 10 4
10 5 0 13 -4 16 -10z m3038 3 c-7 -2 -19 -2 -25 0 -7 3 -2 5 12 5 14 0 19 -2
13 -5z m117 -30 c0 -19 -13 -9 -16 12 -1 8 2 13 7 9 5 -3 9 -12 9 -21z m63 10
c3 -5 1 -17 -4 -28 -4 -11 -8 -15 -8 -8 -1 6 -4 18 -7 27 -6 16 11 23 19 9z
m327 -38 c7 -9 8 -15 2 -15 -5 0 -12 7 -16 15 -3 8 -4 15 -2 15 2 0 9 -7 16
-15z m-215 -11 c9 -9 14 -18 11 -21 -2 -3 -14 5 -25 16 -12 12 -17 21 -12 21
5 0 17 -7 26 -16z m-3398 0 c-3 -3 -12 -4 -19 -1 -8 3 -5 6 6 6 11 1 17 -2 13
-5z m3163 -9 c0 -8 -4 -15 -10 -15 -5 0 -7 7 -4 15 4 8 8 15 10 15 2 0 4 -7 4
-15z m210 -16 c0 -13 -18 -11 -23 4 -4 9 -8 9 -15 -1 -7 -11 -10 -9 -14 6 -5
18 -3 19 23 10 16 -5 29 -14 29 -19z m95 20 c11 -17 -1 -21 -15 -4 -8 9 -8 15
-2 15 6 0 14 -5 17 -11z m55 -31 c0 -6 -6 -5 -15 2 -8 7 -15 14 -15 16 0 2 7
1 15 -2 8 -4 15 -11 15 -16z m50 12 c0 -5 -4 -10 -9 -10 -6 0 -13 5 -16 10 -3
6 1 10 9 10 9 0 16 -4 16 -10z m-325 -28 c-3 -8 -1 -18 5 -22 12 -8 3 -40 -12
-40 -6 0 -7 7 -4 16 4 9 1 23 -5 30 -8 10 -8 14 -1 14 7 0 9 7 5 17 -4 11 -3
14 6 9 7 -5 10 -15 6 -24z m105 -50 c0 -13 -45 28 -48 44 -3 15 2 12 22 -10
14 -16 26 -31 26 -34z m59 32 c9 -20 9 -25 0 -22 -14 5 -32 48 -20 48 4 0 13
-12 20 -26z m121 -14 c0 -5 -5 -10 -11 -10 -5 0 -7 5 -4 10 3 6 8 10 11 10 2
0 4 -4 4 -10z m-40 -21 c0 -6 -4 -7 -10 -4 -5 3 -10 11 -10 16 0 6 5 7 10 4 6
-3 10 -11 10 -16z m330 17 c0 -2 -7 -7 -16 -10 -8 -3 -12 -2 -9 4 6 10 25 14
25 6z m-546 -21 c3 -8 1 -15 -4 -15 -6 0 -10 7 -10 15 0 8 2 15 4 15 2 0 6 -7
10 -15z m141 -16 c-6 -32 -12 -33 -17 -4 -4 16 -1 25 8 25 8 0 11 -8 9 -21z
m123 -14 c0 -31 -13 -41 -23 -18 -3 10 -2 19 4 21 5 2 7 10 4 19 -4 10 -2 14
4 10 6 -4 11 -18 11 -32z m-162 10 c9 -8 11 -15 6 -15 -5 0 -15 7 -22 15 -7 8
-9 15 -6 15 4 0 14 -7 22 -15z m-44 -21 c17 -6 34 -34 20 -34 -4 0 -20 12 -37
26 -16 14 -23 23 -15 20 8 -3 23 -9 32 -12z m508 -29 c14 -19 14 -19 -2 -6
-10 7 -18 18 -18 24 0 6 1 8 3 6 1 -2 9 -13 17 -24z m-440 5 c0 -5 -4 -10 -9
-10 -5 0 -7 -9 -4 -19 3 -13 11 -18 21 -14 15 4 15 3 -1 -10 -9 -8 -16 -21
-14 -28 2 -8 2 -11 0 -6 -3 4 -9 7 -15 7 -13 0 0 -105 17 -137 13 -24 13 -24
20 -4 3 12 11 21 16 21 13 0 11 -9 -6 -27 -9 -9 -13 -23 -10 -34 4 -10 2 -19
-3 -19 -5 0 -14 18 -21 40 -6 22 -15 40 -19 40 -12 0 -13 110 -1 131 7 15 7
24 0 33 -6 8 -9 21 -5 30 7 17 34 22 34 6z m48 -16 c14 8 15 4 6 -18 -8 -20
-24 -21 -24 -1 0 8 -4 15 -10 15 -5 0 -10 8 -10 17 0 15 1 15 13 -2 8 -10 19
-15 25 -11z m41 -25 c-19 -11 -24 -3 -8 14 8 9 16 11 18 5 2 -6 -3 -14 -10
-19z m331 21 c0 -5 -5 -10 -11 -10 -5 0 -7 5 -4 10 3 6 8 10 11 10 2 0 4 -4 4
-10z m-543 -22 c-3 -8 -6 -5 -6 6 -1 11 2 17 5 13 3 -3 4 -12 1 -19z m48 2 c3
-5 1 -10 -4 -10 -6 0 -11 5 -11 10 0 6 2 10 4 10 3 0 8 -4 11 -10z m151 -47
c4 -16 8 -30 9 -33 0 -3 6 -14 12 -25 8 -15 8 -23 -4 -34 -12 -11 -14 -11 -12
0 5 21 -24 108 -33 103 -4 -3 -8 0 -8 5 0 23 28 10 36 -16z m-21 -23 c3 -5 2
-10 -4 -10 -5 0 -13 5 -16 10 -3 6 -2 10 4 10 5 0 13 -4 16 -10z m-5 -60 c0
-19 -17 -10 -28 15 -16 36 -15 38 8 15 11 -11 20 -24 20 -30z m-305 -100 c3
-6 -1 -7 -9 -4 -18 7 -21 14 -7 14 6 0 13 -4 16 -10z m38 -5 c-3 -9 -8 -14
-10 -11 -3 3 -2 9 2 15 9 16 15 13 8 -4z m205 -3 c20 -17 21 -23 11 -86 -10
-60 -9 -70 8 -88 17 -21 17 -21 0 -15 -15 6 -17 3 -12 -13 4 -11 2 -20 -4 -20
-6 0 -12 8 -12 18 -1 9 -2 32 -4 50 -1 18 2 55 7 83 8 43 6 54 -8 70 -22 24
-14 25 14 1z m42 -52 l-8 -35 -1 31 c-1 17 2 34 6 37 11 12 12 3 3 -33z m-190
-24 c0 -26 -6 -18 -14 19 -5 22 -4 26 4 15 5 -8 10 -24 10 -34z m-20 10 c0 -3
-4 -8 -10 -11 -5 -3 -10 -1 -10 4 0 6 5 11 10 11 6 0 10 -2 10 -4z m415 -16
c3 -5 1 -10 -4 -10 -6 0 -11 5 -11 10 0 6 2 10 4 10 3 0 8 -4 11 -10z m-1479
-41 c8 -7 12 -19 9 -27 -3 -9 0 -12 9 -9 10 4 13 1 10 -7 -3 -8 4 -21 16 -29
17 -12 19 -18 10 -41 -5 -15 -7 -33 -3 -39 12 -20 14 -47 2 -47 -18 0 -3 -79
19 -103 24 -26 52 -87 52 -116 0 -21 -22 -33 -44 -25 -23 9 -126 169 -126 196
0 4 -20 53 -45 108 -48 108 -55 146 -28 165 14 10 26 10 61 0 23 -7 50 -19 58
-26z m1415 18 c-10 -9 -11 -8 -5 6 3 10 9 15 12 12 3 -3 0 -11 -7 -18z m-3824
-34 c-3 -10 -5 -4 -5 12 0 17 2 24 5 18 2 -7 2 -21 0 -30z m3414 14 c-10 -9
-11 -8 -5 6 3 10 9 15 12 12 3 -3 0 -11 -7 -18z m184 14 c3 -5 1 -12 -4 -15
-5 -3 -11 1 -15 9 -6 16 9 21 19 6z m268 -11 c3 -11 1 -18 -4 -14 -5 3 -9 12
-9 20 0 20 7 17 13 -6z m-99 -6 c3 -8 2 -12 -4 -9 -6 3 -10 10 -10 16 0 14 7
11 14 -7z m-3734 -29 c-7 -14 -17 -25 -22 -25 -14 0 -9 18 7 24 8 3 15 13 15
22 0 10 3 14 7 11 3 -4 0 -18 -7 -32z m3680 25 c0 -5 -2 -10 -4 -10 -3 0 -8 5
-11 10 -3 6 -1 10 4 10 6 0 11 -4 11 -10z m30 -38 c0 -32 -5 -40 -32 -56 l-33
-18 29 24 c20 17 27 30 23 41 -6 16 0 47 9 47 2 0 4 -17 4 -38z m94 21 c3 -10
9 -24 12 -30 3 -7 2 -13 -3 -13 -5 0 -14 14 -20 30 -6 17 -8 30 -3 30 4 0 10
-8 14 -17z m-424 -8 c0 -8 -4 -15 -10 -15 -5 0 -7 7 -4 15 4 8 8 15 10 15 2 0
4 -7 4 -15z m277 -17 c-3 -8 -6 -5 -6 6 -1 11 2 17 5 13 3 -3 4 -12 1 -19z
m119 11 c4 -7 8 -33 10 -58 3 -37 2 -42 -7 -28 -6 10 -9 27 -6 37 3 10 -2 28
-10 39 -8 12 -10 21 -4 21 5 0 13 -5 17 -11z m-36 -9 c0 -5 -5 -10 -11 -10 -5
0 -7 5 -4 10 3 6 8 10 11 10 2 0 4 -4 4 -10z m-3846 -27 c-4 -22 -3 -25 5 -13
15 21 13 7 -3 -25 -21 -41 -31 0 -11 48 11 26 16 21 9 -10z m46 7 c0 -5 -2
-10 -4 -10 -3 0 -8 5 -11 10 -3 6 -1 10 4 10 6 0 11 -4 11 -10z m3427 -12 c-3
-8 -6 -5 -6 6 -1 11 2 17 5 13 3 -3 4 -12 1 -19z m-3357 8 c0 -3 -4 -8 -10
-11 -5 -3 -10 -1 -10 4 0 6 5 11 10 11 6 0 10 -2 10 -4z m3728 -8 c-3 -7 1
-19 9 -26 7 -7 13 -23 13 -35 0 -18 -4 -15 -19 13 -10 19 -16 41 -14 48 7 16
16 16 11 0z m112 -25 c0 -19 -13 -9 -16 12 -1 8 2 13 7 9 5 -3 9 -12 9 -21z
m-230 -13 c13 -8 13 -10 -2 -10 -9 0 -20 5 -23 10 -8 13 5 13 25 0z m90 -43
c0 -6 -9 -2 -20 8 -11 10 -20 23 -20 28 0 6 9 2 20 -8 11 -10 20 -23 20 -28z
m-143 27 c-3 -3 -12 -4 -19 -1 -8 3 -5 6 6 6 11 1 17 -2 13 -5z m-3637 -26 c0
-16 -3 -19 -11 -11 -6 6 -8 16 -5 22 11 17 16 13 16 -11z m3684 -9 c-14 -15
-14 -21 -4 -34 11 -13 10 -14 -4 -9 -9 3 -16 17 -16 31 0 16 4 22 12 17 7 -5
9 -2 5 9 -4 11 -2 14 9 10 13 -5 13 -8 -2 -24z m43 9 c-3 -8 -6 -5 -6 6 -1 11
2 17 5 13 3 -3 4 -12 1 -19z m182 -24 c4 3 7 -4 6 -14 -2 -23 -11 -36 -13 -17
-1 6 -3 23 -5 37 -2 14 -2 17 0 7 2 -9 8 -15 12 -13z m-100 -17 c1 -5 -3 -5
-9 -2 -5 3 -10 16 -9 28 0 21 1 21 9 2 5 -11 9 -24 9 -28z m139 18 c-3 -3 -9
2 -12 12 -6 14 -5 15 5 6 7 -7 10 -15 7 -18z m-96 3 c6 -17 -1 -38 -13 -38 -5
0 -8 11 -7 25 3 27 13 33 20 13z m-142 -13 c11 -13 10 -14 -4 -9 -9 3 -16 10
-16 15 0 13 6 11 20 -6z m-3646 -61 c-9 -22 -22 -50 -27 -64 -18 -41 -58 -91
-68 -85 -5 4 5 21 21 38 17 18 39 56 51 86 23 62 29 74 35 68 3 -3 -3 -22 -12
-43z m3686 36 c0 -5 -2 -10 -4 -10 -3 0 -8 5 -11 10 -3 6 -1 10 4 10 6 0 11
-4 11 -10z m125 0 c-3 -5 -16 -15 -28 -21 -19 -9 -19 -8 3 10 28 23 34 26 25
11z m-65 -15 c-7 -8 -17 -15 -22 -15 -6 0 -5 7 2 15 7 8 17 15 22 15 6 0 5 -7
-2 -15z m-132 -20 c-3 -3 -9 2 -12 12 -6 14 -5 15 5 6 7 -7 10 -15 7 -18z m36
-11 c3 -8 2 -12 -4 -9 -6 3 -10 10 -10 16 0 14 7 11 14 -7z m95 -40 c-11 -14
-13 -14 -22 1 -5 9 -6 19 -3 22 3 4 6 1 6 -5 0 -19 20 -14 21 6 0 11 2 12 6 4
3 -7 -1 -20 -8 -28z m51 32 c0 -3 -4 -8 -10 -11 -5 -3 -10 -1 -10 4 0 6 5 11
10 11 6 0 10 -2 10 -4z m-3870 -20 c0 -3 -4 -8 -10 -11 -5 -3 -10 -1 -10 4 0
6 5 11 10 11 6 0 10 -2 10 -4z m3660 -22 c0 -2 -9 0 -20 6 -11 6 -20 13 -20
16 0 2 9 0 20 -6 11 -6 20 -13 20 -16z m47 4 c-3 -8 -6 -5 -6 6 -1 11 2 17 5
13 3 -3 4 -12 1 -19z m-3797 -23 c0 -14 -4 -25 -9 -25 -5 0 -8 11 -7 25 1 33
16 33 16 0z m2550 -39 c17 -30 53 -75 81 -100 73 -65 41 -74 -49 -13 -38 26
-42 27 -33 8 7 -11 16 -21 21 -21 5 0 17 -11 26 -25 13 -19 14 -31 6 -55 -7
-18 -7 -41 -2 -60 9 -32 -4 -50 -23 -31 -15 15 -25 14 -24 -1 0 -7 -1 -26 -1
-42 -2 -25 -4 -27 -18 -16 -33 28 -51 99 -41 163 6 41 12 41 36 5 14 -23 21
-28 21 -15 0 10 -12 29 -26 43 -20 21 -24 32 -19 55 4 16 11 29 15 29 5 0 8 6
5 13 -6 22 -16 117 -11 117 2 0 19 -25 36 -54z m1357 37 c-4 -3 -1 -13 6 -22
11 -14 10 -14 -5 -2 -16 12 -16 31 -1 31 4 0 3 -3 0 -7z m20 -85 c-3 -7 -5 -2
-5 12 0 14 2 19 5 13 2 -7 2 -19 0 -25z m-4007 7 c-7 -9 -15 -13 -17 -11 -7 7
7 26 19 26 6 0 6 -6 -2 -15z m140 1 c0 -3 -4 -8 -10 -11 -5 -3 -10 -1 -10 4 0
6 5 11 10 11 6 0 10 -2 10 -4z m3860 -61 c0 -5 -5 -3 -10 5 -5 8 -10 20 -10
25 0 6 5 3 10 -5 5 -8 10 -19 10 -25z m34 9 c18 -26 18 -26 -2 -15 -11 6 -22
17 -26 26 -9 23 7 17 28 -11z m-1903 -11 c-8 -15 -10 -15 -11 -2 0 17 10 32
18 25 2 -3 -1 -13 -7 -23z m-2014 -10 c-4 -3 -1 -13 6 -21 9 -13 9 -14 0 -8
-10 5 -13 -3 -13 -31 0 -22 -4 -33 -8 -26 -4 7 -7 25 -6 40 1 15 3 34 3 41 1
6 6 12 13 12 6 0 8 -3 5 -7z m48 -29 c-8 -16 -15 -23 -15 -16 0 13 22 53 27
48 2 -2 -3 -16 -12 -32z m2072 14 c-3 -8 -6 -5 -6 6 -1 11 2 17 5 13 3 -3 4
-12 1 -19z m533 -38 c0 -5 -4 -10 -10 -10 -5 0 -10 5 -10 10 0 6 5 10 10 10 6
0 10 -4 10 -10z m-2627 -20 c3 -12 0 -20 -8 -20 -8 0 -11 8 -8 20 3 11 7 20 8
20 1 0 5 -9 8 -20z m-48 -48 c-8 -8 -35 20 -35 37 1 12 5 11 21 -8 11 -13 17
-26 14 -29z m192 6 c-3 -7 -5 -2 -5 12 0 14 2 19 5 13 2 -7 2 -19 0 -25z
m-163 -4 c3 -8 2 -12 -4 -9 -6 3 -10 10 -10 16 0 14 7 11 14 -7z m136 -3 c0
-21 -29 -56 -38 -47 -3 3 2 14 11 24 10 10 17 24 17 30 0 7 2 12 5 12 3 0 5
-9 5 -19z m-49 -20 c-9 -6 -11 -20 -6 -49 4 -27 3 -42 -6 -48 -8 -5 -10 -3 -5
5 5 7 1 20 -9 31 -11 12 -13 20 -6 25 6 3 11 15 11 25 0 10 6 20 13 23 18 6
24 -3 8 -12z m-181 -12 c0 -6 -4 -7 -10 -4 -5 3 -10 11 -10 16 0 6 5 7 10 4 6
-3 10 -11 10 -16z m98 -21 c1 -26 -1 -29 -9 -16 -5 9 -6 23 -3 32 9 23 11 20
12 -16z m2143 -70 c12 -17 16 -29 9 -33 -12 -7 -41 54 -39 82 1 15 2 15 6 -2
3 -11 14 -32 24 -47z m-2102 38 c9 -10 7 -17 -6 -27 -16 -12 -17 -12 -6 2 10
12 10 18 1 27 -7 7 -9 12 -6 12 3 0 11 -6 17 -14z m2361 0 c0 -8 -4 -18 -10
-21 -5 -3 -10 3 -10 14 0 12 5 21 10 21 6 0 10 -6 10 -14z m-2395 -25 c-3 -6
-11 -8 -17 -5 -6 4 -5 9 3 15 16 10 23 4 14 -10z m-85 -1 c0 -5 -4 -10 -10
-10 -5 0 -10 5 -10 10 0 6 5 10 10 10 6 0 10 -4 10 -10z m2541 -57 c30 -50 52
-116 36 -110 -23 7 -82 147 -63 147 2 0 14 -17 27 -37z m-2846 -123 c-3 -5
-10 -10 -16 -10 -5 0 -9 5 -9 10 0 6 7 10 16 10 8 0 12 -4 9 -10z m-35 -40 c0
-5 -4 -10 -10 -10 -5 0 -10 5 -10 10 0 6 5 10 10 10 6 0 10 -4 10 -10z m-294
-68 c12 -9 25 -28 28 -42 l7 -25 -24 27 c-14 15 -27 33 -30 40 -2 7 -7 10 -11
6 -4 -3 -3 -17 4 -30 l11 -23 -21 24 c-16 19 -18 26 -8 32 18 12 20 11 44 -9z
m1180 -9 c-10 -10 -19 5 -10 18 6 11 8 11 12 0 2 -7 1 -15 -2 -18z m4 -33 c0
-5 -2 -10 -4 -10 -3 0 -8 5 -11 10 -3 6 -1 10 4 10 6 0 11 -4 11 -10z m-1230
-10 c0 -5 -5 -10 -11 -10 -5 0 -7 5 -4 10 3 6 8 10 11 10 2 0 4 -4 4 -10z
m1220 -20 c0 -5 -2 -10 -4 -10 -3 0 -8 5 -11 10 -3 6 -1 10 4 10 6 0 11 -4 11
-10z m17 -26 c-3 -3 -12 -4 -19 -1 -8 3 -5 6 6 6 11 1 17 -2 13 -5z m-27 -18
c0 -3 -4 -8 -10 -11 -5 -3 -10 -1 -10 4 0 6 5 11 10 11 6 0 10 -2 10 -4z m14
-31 c3 -8 1 -15 -4 -15 -6 0 -10 7 -10 15 0 8 2 15 4 15 2 0 6 -7 10 -15z
m-29 -35 c-3 -6 4 -10 17 -10 19 0 20 -2 8 -10 -13 -9 -13 -11 0 -20 9 -6 10
-10 3 -10 -12 0 -43 38 -43 52 0 5 5 8 11 8 5 0 7 -4 4 -10z m16 -80 c5 0 9
-7 9 -15 0 -8 -3 -15 -8 -15 -13 0 -33 41 -25 53 5 8 9 7 11 -5 2 -10 8 -18
13 -18z m201 -35 c-9 -19 -23 -35 -29 -35 -17 0 -17 17 0 27 8 4 16 16 20 26
3 9 11 17 16 17 6 0 3 -16 -7 -35z m-46 -46 c9 -16 -10 -31 -30 -23 -13 5 -14
9 -5 20 14 17 25 18 35 3z m-82 -15 c9 -22 -3 -32 -14 -14 -12 19 -12 30 -1
30 5 0 12 -7 15 -16z m6 -54 c0 -5 -2 -10 -4 -10 -3 0 -8 5 -11 10 -3 6 -1 10
4 10 6 0 11 -4 11 -10z m10 -53 c0 -8 11 -35 24 -60 13 -26 21 -47 17 -47 -15
1 -28 18 -40 55 -7 22 -15 46 -17 53 -3 6 -1 12 5 12 6 0 11 -6 11 -13z m20
-198 c0 -11 -4 -17 -10 -14 -5 3 -10 13 -10 21 0 8 5 14 10 14 6 0 10 -9 10
-21z m-30 -29 c0 -5 -4 -10 -10 -10 -5 0 -10 5 -10 10 0 6 5 10 10 10 6 0 10
-4 10 -10z"/>
<path d="M2878 4523 c7 -3 16 -2 19 1 4 3 -2 6 -13 5 -11 0 -14 -3 -6 -6z"/>
<path d="M2180 4230 c0 -5 5 -10 11 -10 5 0 7 5 4 10 -3 6 -8 10 -11 10 -2 0
-4 -4 -4 -10z"/>
<path d="M1925 4190 c-3 -5 -2 -10 4 -10 5 0 13 5 16 10 3 6 2 10 -4 10 -5 0
-13 -4 -16 -10z"/>
<path d="M2973 4173 c-48 -9 -19 -21 80 -33 56 -6 125 -15 154 -19 39 -6 53
-5 57 5 7 17 -10 21 -137 34 -59 6 -113 12 -120 14 -6 2 -22 1 -34 -1z"/>
<path d="M2118 4127 c-16 -6 -28 -14 -28 -19 0 -4 -7 -5 -15 -2 -8 4 -15 2
-15 -4 0 -5 7 -12 15 -16 8 -3 15 -2 15 3 0 4 17 15 38 23 34 13 41 13 77 -4
32 -14 65 -17 165 -16 69 0 114 3 101 5 -13 3 -25 13 -28 23 -5 19 -41 17 -55
-4 -5 -8 -8 -7 -8 2 0 18 -18 15 -23 -5 -4 -16 -5 -15 -6 1 -1 20 -1 20 -17 0
-15 -18 -15 -18 -10 6 4 22 3 23 -7 8 -16 -20 -67 -19 -68 2 0 11 -2 11 -6 2
-4 -10 -8 -10 -19 -1 -11 9 -14 9 -14 0 0 -7 -5 -9 -12 -4 -20 12 -50 12 -80
0z"/>
<path d="M2280 4130 c0 -5 5 -10 10 -10 6 0 10 5 10 10 0 6 -4 10 -10 10 -5 0
-10 -4 -10 -10z"/>
<path d="M3280 4129 c0 -5 12 -14 26 -19 34 -13 39 -13 25 4 -14 17 -51 28
-51 15z"/>
<path d="M2500 4115 c0 -5 5 -17 10 -25 5 -8 10 -10 10 -5 0 6 -5 17 -10 25
-5 8 -10 11 -10 5z"/>
<path d="M2545 4106 c-18 -13 -18 -14 4 -21 28 -9 48 7 28 23 -10 9 -18 8 -32
-2z"/>
<path d="M2020 4096 c0 -2 7 -6 15 -10 8 -3 15 -1 15 4 0 6 -7 10 -15 10 -8 0
-15 -2 -15 -4z"/>
<path d="M2155 4080 c-3 -6 5 -10 19 -10 14 0 28 5 31 10 3 6 -5 10 -19 10
-14 0 -28 -4 -31 -10z"/>
<path d="M2737 4079 c7 -7 15 -10 18 -7 3 3 -2 9 -12 12 -14 6 -15 5 -6 -5z"/>
<path d="M1935 4059 c-11 -17 1 -21 15 -4 8 9 8 15 2 15 -6 0 -14 -5 -17 -11z"/>
<path d="M2108 4063 c6 -2 18 -2 25 0 6 3 1 5 -13 5 -14 0 -19 -2 -12 -5z"/>
<path d="M2040 4050 c-13 -9 -13 -10 0 -9 8 0 24 4 35 9 l20 9 -20 0 c-11 0
-27 -4 -35 -9z"/>
<path d="M2000 4040 c-9 -6 -10 -10 -3 -10 6 0 15 5 18 10 8 12 4 12 -15 0z"/>
<path d="M2788 4033 c7 -3 16 -2 19 1 4 3 -2 6 -13 5 -11 0 -14 -3 -6 -6z"/>
<path d="M4125 4024 c-36 -18 -53 -34 -38 -34 6 0 16 7 23 15 7 8 16 13 20 10
4 -3 13 2 20 10 16 19 12 19 -25 -1z"/>
<path d="M1958 4023 c7 -3 16 -2 19 1 4 3 -2 6 -13 5 -11 0 -14 -3 -6 -6z"/>
<path d="M1787 3975 c-4 -8 -2 -17 3 -20 6 -4 10 3 10 14 0 25 -6 27 -13 6z"/>
<path d="M2529 3968 c-5 -17 -4 -48 3 -48 4 0 8 11 8 25 0 20 -7 34 -11 23z"/>
<path d="M1530 4004 c0 -8 5 -12 10 -9 6 4 8 11 5 16 -9 14 -15 11 -15 -7z"/>
<path d="M1595 3980 c-10 -11 -15 -20 -11 -20 4 0 19 9 33 20 17 13 20 20 11
20 -8 0 -23 -9 -33 -20z"/>
<path d="M1605 3940 c3 -5 8 -10 11 -10 2 0 4 5 4 10 0 6 -5 10 -11 10 -5 0
-7 -4 -4 -10z"/>
<path d="M1431 3849 c0 -13 4 -33 9 -44 7 -14 8 -8 3 20 -7 46 -13 59 -12 24z"/>
<path d="M1441 3764 c0 -11 3 -14 6 -6 3 7 2 16 -1 19 -3 4 -6 -2 -5 -13z"/>
<path d="M1447 3702 c3 -12 9 -25 14 -28 14 -8 11 10 -6 32 -13 18 -14 18 -8
-4z"/>
<path d="M1388 5073 c-3 -12 -3 -25 1 -28 3 -3 13 -36 21 -73 15 -64 16 -66
48 -68 17 -1 44 -9 58 -19 15 -9 23 -11 19 -5 -4 7 -7 42 -7 78 1 70 -3 79
-11 21 -2 -20 -10 -45 -16 -55 -11 -16 -11 -15 -6 11 4 17 9 48 11 70 4 36 3
38 -7 15 l-12 -25 -7 25 c-4 14 -13 24 -20 22 -7 -2 -19 6 -27 18 -8 11 -18
18 -23 15 -4 -3 -10 0 -12 7 -3 7 -7 3 -10 -9z"/>
<path d="M1686 5044 c-9 -24 -2 -26 12 -4 7 11 8 20 3 20 -5 0 -12 -7 -15 -16z"/>
<path d="M830 5031 c0 -33 11 -51 32 -51 15 0 18 4 12 23 -13 45 -44 64 -44
28z"/>
<path d="M888 4968 c-4 -8 2 -22 13 -32 24 -20 24 -20 26 4 1 11 -4 20 -12 20
-7 0 -15 5 -17 12 -3 8 -6 7 -10 -4z"/>
<path d="M1170 4944 c0 -14 4 -23 9 -20 5 3 7 15 4 26 -7 28 -13 25 -13 -6z"/>
<path d="M2735 4948 c-22 -4 -58 -13 -80 -20 -22 -6 -49 -12 -60 -13 -11 -1
-31 -5 -45 -10 -14 -4 -50 -9 -80 -10 -30 -2 -91 -12 -136 -24 -44 -11 -140
-34 -214 -51 -199 -44 -340 -90 -340 -109 0 -10 -3 -12 -8 -5 -8 13 -42 15
-42 2 0 -4 -6 -8 -12 -8 -13 -1 -58 -63 -58 -81 0 -5 -5 -9 -11 -9 -5 0 -7 -4
-4 -10 3 -5 1 -10 -5 -10 -6 0 -8 -4 -5 -10 3 -5 0 -10 -8 -10 -7 0 -23 -17
-34 -37 -12 -21 -31 -56 -43 -78 -12 -22 -42 -69 -66 -106 -24 -36 -44 -70
-44 -76 0 -6 -6 -14 -12 -17 -7 -4 3 -4 22 -1 83 13 113 39 214 183 53 75 102
144 109 153 7 9 54 25 112 38 156 34 185 46 244 104 30 28 56 51 58 49 2 -1
16 4 31 12 60 31 198 58 310 62 130 5 128 6 91 -91 -44 -117 -136 -169 -344
-191 -38 -4 -76 -7 -83 -5 -7 1 -16 -8 -22 -21 -8 -22 -9 -22 -9 -2 -1 25 -28
27 -51 4 -8 -9 -11 -10 -6 -3 5 8 6 17 2 21 -4 4 -12 -1 -17 -11 -14 -23 -29
-21 -29 4 0 20 -2 19 -34 -8 -145 -121 -190 -153 -251 -183 -38 -19 -75 -34
-81 -32 -6 1 -17 -5 -24 -13 -17 -21 -7 -19 79 14 42 16 101 37 131 46 55 18
86 35 61 35 -7 0 -9 5 -6 10 5 8 11 8 20 0 15 -12 65 -3 65 12 0 5 4 7 9 3 12
-7 381 78 452 105 89 32 154 80 214 155 47 59 133 204 143 241 3 13 -46 14
-103 2z m-688 -430 c-3 -8 -6 -5 -6 6 -1 11 2 17 5 13 3 -3 4 -12 1 -19z m163
-18 c0 -5 -8 -10 -17 -10 -15 0 -16 2 -3 10 19 12 20 12 20 0z m-632 -150
c-12 -16 -26 -30 -32 -30 -5 0 3 14 19 30 16 17 30 30 32 30 2 0 -6 -13 -19
-30z m-58 -54 c0 -2 -7 -7 -16 -10 -8 -3 -12 -2 -9 4 6 10 25 14 25 6z"/>
<path d="M1074 4932 c-16 -10 -34 -48 -34 -71 0 -20 32 -37 49 -27 5 3 22 -1
37 -9 20 -10 32 -11 41 -3 10 8 13 5 13 -14 0 -14 10 -33 21 -44 16 -14 21
-15 17 -4 -3 8 -1 27 3 43 6 21 4 27 -7 27 -24 0 -47 29 -41 50 3 11 1 20 -4
20 -5 0 -9 -7 -9 -16 0 -25 -24 -11 -39 24 -15 32 -26 38 -47 24z"/>
<path d="M906 4880 c8 -43 10 -46 16 -22 3 10 -1 27 -9 37 -12 17 -13 16 -7
-15z"/>
<path d="M1242 4880 c0 -14 2 -19 5 -12 2 6 2 18 0 25 -3 6 -5 1 -5 -13z"/>
<path d="M765 4880 c3 -5 11 -10 16 -10 6 0 7 5 4 10 -3 6 -11 10 -16 10 -6 0
-7 -4 -4 -10z"/>
<path d="M1813 4861 c1 -11 6 -17 14 -14 10 4 11 9 2 19 -15 19 -18 18 -16 -5z"/>
<path d="M1375 4841 c-27 -12 -35 -20 -25 -24 8 -3 10 -6 3 -6 -6 -1 -14 3
-17 8 -6 9 -84 -6 -99 -19 -8 -7 30 -79 66 -124 22 -27 26 -28 44 -15 23 16
95 75 124 102 10 9 23 17 27 17 5 0 17 6 28 14 18 14 16 16 -36 40 -64 30 -63
30 -115 7z m15 -111 c0 -5 -5 -10 -11 -10 -5 0 -7 5 -4 10 3 6 8 10 11 10 2 0
4 -4 4 -10z m-30 -14 c0 -2 -7 -6 -15 -10 -8 -3 -15 -1 -15 4 0 6 7 10 15 10
8 0 15 -2 15 -4z"/>
<path d="M760 4805 c0 -8 5 -15 10 -15 7 0 7 -6 1 -18 -15 -28 2 -48 23 -27
19 19 21 35 5 35 -6 0 -9 6 -6 14 3 8 -1 17 -9 20 -22 8 -24 8 -24 -9z"/>
<path d="M1026 4777 c1 -23 2 -46 3 -52 1 -9 35 -15 114 -19 17 0 25 -6 23
-13 -3 -7 2 -19 10 -28 21 -21 5 -19 -34 5 -18 11 -43 20 -56 20 -14 0 -26 5
-28 12 -3 9 -6 9 -12 0 -4 -7 -2 -12 3 -12 6 0 11 -6 11 -14 0 -8 16 -20 35
-26 19 -6 44 -23 55 -37 19 -24 23 -25 45 -13 14 7 25 19 25 26 0 25 -12 44
-29 44 -14 0 -14 2 -1 10 11 7 11 10 2 10 -10 0 -10 5 -1 22 10 19 8 24 -12
40 -13 10 -31 25 -40 33 -16 16 -71 35 -99 35 -11 0 -15 -11 -14 -43z"/>
<path d="M790 4715 c-8 -9 -8 -15 -2 -15 12 0 26 19 19 26 -2 2 -10 -2 -17
-11z"/>
<path d="M1454 4690 c-27 -23 -50 -44 -52 -45 -1 -1 26 4 60 11 35 7 97 19
138 25 l75 12 -45 14 c-25 8 -63 16 -86 19 -37 6 -45 3 -90 -36z"/>
<path d="M1232 4703 c2 -10 12 -19 23 -21 19 -3 19 -2 3 11 -10 8 -15 17 -11
20 3 4 1 7 -6 7 -7 0 -11 -8 -9 -17z"/>
<path d="M780 4669 c0 -6 6 -17 14 -24 12 -12 16 -12 26 1 7 8 10 17 6 21 -11
12 -46 13 -46 2z"/>
<path d="M1254 4643 c3 -8 6 -16 6 -19 0 -2 7 -1 15 2 21 9 19 21 -6 27 -15 4
-19 2 -15 -10z"/>
<path d="M963 4638 c-23 -11 -31 -28 -14 -28 5 0 23 6 41 14 25 10 29 14 15
20 -9 3 -17 6 -18 5 -1 0 -12 -5 -24 -11z"/>
<path d="M824 4586 c4 -18 3 -25 -3 -21 -7 3 -8 0 -5 -9 3 -9 12 -16 18 -16
15 0 9 57 -7 67 -6 4 -8 -4 -3 -21z"/>
<path d="M1435 4603 c-47 -6 -125 -34 -125 -44 0 -5 11 -9 25 -9 30 0 134 35
149 50 10 10 8 11 -49 3z"/>
<path d="M1075 4580 c-4 -6 3 -10 14 -10 25 0 27 6 6 13 -8 4 -17 2 -20 -3z"/>
<path d="M1128 4573 c7 -3 16 -2 19 1 4 3 -2 6 -13 5 -11 0 -14 -3 -6 -6z"/>
<path d="M1155 4559 c-22 -10 -34 -19 -27 -19 15 0 72 28 72 35 0 6 3 7 -45
-16z"/>
<path d="M1407 4480 c-10 -10 -75 -53 -144 -96 -70 -43 -121 -80 -115 -82 7
-2 10 -8 6 -13 -8 -13 107 38 126 56 93 87 152 146 149 149 -2 2 -12 -4 -22
-14z"/>
<path d="M1165 4484 c-148 -18 -321 -102 -295 -144 9 -13 10 -13 10 0 0 10 26
23 78 38 124 38 245 86 250 100 2 6 0 11 -5 11 -4 -1 -21 -4 -38 -5z"/>
<path d="M1120 4286 c0 -8 5 -18 10 -21 6 -3 10 1 10 9 0 8 -4 18 -10 21 -5 3
-10 -1 -10 -9z"/>
<path d="M1720 4250 c-8 -6 -34 -15 -57 -21 -24 -6 -43 -16 -43 -21 0 -11 24
-4 93 27 29 13 45 24 37 24 -8 1 -22 -4 -30 -9z"/>
<path d="M1249 4218 c-1 -2 -3 -16 -5 -31 -2 -23 0 -26 11 -17 7 6 11 20 8 30
-5 18 -11 25 -14 18z"/>
<path d="M1574 4206 c-5 -12 -10 -14 -19 -6 -9 8 -35 3 -91 -14 -42 -14 -81
-23 -85 -20 -4 2 -11 -1 -15 -7 -5 -8 -3 -9 7 -3 8 4 -4 -10 -26 -32 -22 -22
-61 -71 -88 -107 -26 -37 -70 -84 -97 -106 -28 -23 -44 -41 -37 -44 25 -9 82
25 189 114 60 49 144 112 186 139 122 78 117 73 98 89 -13 11 -17 11 -22 -3z
m-138 -51 c-21 -16 -18 -18 29 -16 29 1 29 0 8 -11 -13 -6 -23 -15 -23 -20 0
-4 -7 -8 -15 -8 -8 0 -15 -3 -15 -7 0 -5 -12 -14 -28 -20 -25 -12 -25 -11 7
19 32 28 33 32 17 43 -16 13 -16 14 1 24 27 16 41 13 19 -4z m-41 -41 c-9 -9
-18 -14 -21 -11 -9 9 6 27 22 27 13 0 13 -2 -1 -16z"/>
<path d="M1200 4163 c0 -15 31 -46 38 -38 3 3 -4 15 -16 28 -12 12 -22 16 -22
10z"/>
<path d="M1149 4098 c-12 -16 -31 -40 -43 -52 -11 -12 -48 -51 -81 -87 -33
-35 -97 -97 -142 -138 -46 -41 -81 -77 -78 -79 4 -5 73 49 113 88 14 14 22 19
17 11 -5 -9 -3 -12 6 -9 8 3 14 10 14 15 0 6 14 21 30 34 17 13 69 60 117 106
48 46 92 83 97 83 6 0 15 10 22 22 10 18 9 20 -5 15 -9 -4 -15 -2 -13 5 5 24
-34 15 -54 -14z m-19 -58 c0 -5 -4 -10 -10 -10 -5 0 -10 5 -10 10 0 6 5 10 10
10 6 0 10 -4 10 -10z"/>
<path d="M883 3975 c-3 -9 -3 -18 -1 -21 3 -3 8 4 11 16 6 23 -1 27 -10 5z"/>
<path d="M752 3830 c0 -19 2 -27 5 -17 2 9 2 25 0 35 -3 9 -5 1 -5 -18z"/>
<path d="M822 3710 c0 -14 2 -19 5 -12 2 6 2 18 0 25 -3 6 -5 1 -5 -13z"/>
<path d="M1100 3695 c0 -8 4 -15 10 -15 5 0 7 7 4 15 -4 8 -8 15 -10 15 -2 0
-4 -7 -4 -15z"/>
<path d="M300 3601 c0 -6 5 -13 10 -16 6 -3 10 1 10 9 0 9 -4 16 -10 16 -5 0
-10 -4 -10 -9z"/>
<path d="M2 3357 c1 -14 8 -29 15 -31 17 -7 16 14 -2 38 -14 19 -15 19 -13 -7z"/>
<path d="M1647 3242 c-10 -10 -14 -22 -10 -25 3 -4 1 -7 -6 -7 -7 0 -9 -4 -6
-10 3 -5 1 -19 -5 -30 -8 -14 -8 -20 0 -20 17 0 40 27 40 47 0 10 5 25 11 33
9 13 10 12 5 -2 -6 -19 9 -25 19 -8 7 11 -11 40 -25 40 -4 0 -14 -8 -23 -18z"/>
<path d="M1766 3181 c-4 -5 -2 -12 3 -15 5 -4 12 -2 15 3 4 5 2 12 -3 15 -5 4
-12 2 -15 -3z"/>
<path d="M1846 3114 c-3 -9 -6 -23 -6 -32 1 -14 3 -14 12 3 7 11 13 26 14 33
3 18 -13 15 -20 -4z"/>
<path d="M2315 3109 c-4 -6 -5 -12 -2 -15 2 -3 7 2 10 11 7 17 1 20 -8 4z"/>
<path d="M1805 3090 c-9 -27 6 -50 16 -24 4 10 8 25 8 32 1 20 -17 14 -24 -8z"/>
<path d="M2270 3100 c0 -5 5 -10 10 -10 6 0 10 5 10 10 0 6 -4 10 -10 10 -5 0
-10 -4 -10 -10z"/>
<path d="M1518 3085 c-9 -9 2 -36 23 -59 10 -10 15 -25 12 -33 -4 -11 -1 -14
8 -11 23 8 21 33 -4 59 -13 13 -26 30 -28 37 -3 7 -7 10 -11 7z"/>
<path d="M1875 3080 c-3 -5 -1 -10 4 -10 6 0 11 5 11 10 0 6 -2 10 -4 10 -3 0
-8 -4 -11 -10z"/>
<path d="M1771 3064 c0 -11 3 -14 6 -6 3 7 2 16 -1 19 -3 4 -6 -2 -5 -13z"/>
<path d="M615 3060 c-3 -5 1 -10 10 -10 9 0 13 5 10 10 -3 6 -8 10 -10 10 -2
0 -7 -4 -10 -10z"/>
<path d="M2202 3053 c-17 -7 -5 -23 19 -23 11 0 18 -4 14 -9 -3 -5 -1 -12 5
-16 16 -10 12 22 -6 39 -8 9 -16 16 -17 15 -1 0 -8 -3 -15 -6z"/>
<path d="M1800 3007 c0 -10 -4 -16 -9 -12 -5 3 -12 1 -16 -4 -3 -6 11 -9 35
-8 25 1 36 5 30 11 -6 6 -4 13 6 20 11 9 8 11 -16 11 -22 0 -30 -5 -30 -18z"/>
<path d="M667 3002 c-10 -10 -17 -23 -17 -29 0 -6 -6 -14 -12 -16 -7 -3 -4 -6
6 -6 16 -1 17 -4 8 -13 -22 -22 -12 -27 12 -5 17 15 21 25 15 33 -7 8 -6 14 1
19 5 3 10 1 10 -4 0 -18 27 -12 34 6 4 10 4 14 0 10 -4 -4 -15 0 -24 8 -15 14
-18 13 -33 -3z"/>
<path d="M557 2995 c-8 -8 -17 -11 -21 -8 -3 4 -6 -1 -6 -10 0 -10 5 -14 15
-11 8 4 15 1 15 -5 0 -6 4 -11 9 -11 4 0 8 13 7 30 -1 35 0 34 -19 15z"/>
<path d="M490 2960 c-14 -10 -21 -22 -17 -26 4 -4 7 -2 7 4 0 7 6 12 14 12 8
0 18 5 21 11 12 18 0 18 -25 -1z"/>
<path d="M1001 2954 c-18 -21 -6 -30 14 -11 8 9 15 18 15 21 0 11 -15 5 -29
-10z"/>
<path d="M596 2933 c-6 -14 -5 -15 5 -6 7 7 10 15 7 18 -3 3 -9 -2 -12 -12z"/>
<path d="M896 2924 c-9 -23 -7 -31 4 -14 14 22 25 3 13 -23 -10 -22 -9 -24 15
-19 15 3 22 7 16 9 -7 2 -10 12 -7 23 7 24 -32 47 -41 24z"/>
<path d="M823 2912 c1 -14 5 -18 11 -12 7 7 6 14 -1 21 -9 9 -12 7 -10 -9z"/>
<path d="M2821 2904 c0 -11 3 -14 6 -6 3 7 2 16 -1 19 -3 4 -6 -2 -5 -13z"/>
<path d="M2989 2893 c-13 -15 -12 -15 9 -4 23 12 28 21 13 21 -5 0 -15 -7 -22
-17z"/>
<path d="M2896 2872 c-5 -18 -5 -36 -2 -39 7 -7 19 43 13 59 -2 7 -7 -2 -11
-20z"/>
<path d="M565 2880 c3 -5 8 -10 11 -10 2 0 4 5 4 10 0 6 -5 10 -11 10 -5 0 -7
-4 -4 -10z"/>
<path d="M1848 2880 c-205 -37 -342 -126 -409 -265 -63 -130 -22 -288 118
-453 102 -120 286 -175 502 -151 89 10 135 26 194 66 90 62 224 298 234 412 5
56 3 68 -31 136 -57 115 -172 202 -318 239 -73 19 -229 27 -290 16z"/>
<path d="M326 2865 c-15 -8 -37 -15 -47 -15 -11 0 -19 -4 -19 -10 0 -5 7 -7
15 -4 9 4 15 0 15 -7 0 -12 2 -12 9 0 5 7 14 10 20 7 6 -4 10 -3 9 3 -2 5 6
17 17 25 26 20 18 20 -19 1z"/>
<path d="M2810 2866 c0 -8 5 -18 10 -21 6 -3 10 1 10 9 0 8 -4 18 -10 21 -5 3
-10 -1 -10 -9z"/>
<path d="M430 2840 c0 -5 5 -10 11 -10 5 0 7 5 4 10 -3 6 -8 10 -11 10 -2 0
-4 -4 -4 -10z"/>
<path d="M2930 2839 c0 -5 5 -7 10 -4 6 3 10 8 10 11 0 2 -4 4 -10 4 -5 0 -10
-5 -10 -11z"/>
<path d="M152 2820 c-7 -12 -8 -20 -2 -20 5 0 10 5 10 10 0 6 7 10 16 10 8 0
12 5 9 10 -9 15 -19 12 -33 -10z"/>
<path d="M115 2820 c3 -5 8 -10 11 -10 2 0 4 5 4 10 0 6 -5 10 -11 10 -5 0 -7
-4 -4 -10z"/>
<path d="M233 2822 c-7 -4 -9 -13 -4 -21 6 -9 10 -7 14 8 3 12 4 21 4 21 -1 0
-7 -4 -14 -8z"/>
<path d="M640 2806 c0 -2 7 -7 16 -10 8 -3 12 -2 9 4 -6 10 -25 14 -25 6z"/>
<path d="M935 2800 c3 -5 8 -10 11 -10 2 0 4 5 4 10 0 6 -5 10 -11 10 -5 0 -7
-4 -4 -10z"/>
<path d="M3866 2748 c19 -29 34 -56 34 -61 0 -4 5 -5 10 -2 6 4 -6 29 -27 60
-49 70 -63 72 -17 3z"/>
<path d="M750 2780 c-9 -6 -10 -10 -3 -10 6 0 15 5 18 10 8 12 4 12 -15 0z"/>
<path d="M2376 2767 c3 -8 11 -14 19 -14 20 0 19 4 -5 17 -15 8 -18 8 -14 -3z"/>
<path d="M0 2749 c0 -5 5 -7 10 -4 5 3 10 8 10 11 0 2 -4 4 -10 4 -5 0 -10 -5
-10 -11z"/>
<path d="M740 2740 c0 -19 3 -21 12 -12 9 9 9 15 0 24 -9 9 -12 7 -12 -12z"/>
<path d="M950 2749 c0 -5 5 -7 10 -4 6 3 10 8 10 11 0 2 -4 4 -10 4 -5 0 -10
-5 -10 -11z"/>
<path d="M164 2739 c-3 -6 -2 -15 3 -20 5 -5 9 -1 9 11 0 23 -2 24 -12 9z"/>
<path d="M80 2725 c0 -8 2 -15 4 -15 2 0 6 7 10 15 3 8 1 15 -4 15 -6 0 -10
-7 -10 -15z"/>
<path d="M40 2720 c0 -5 5 -10 10 -10 6 0 10 5 10 10 0 6 -4 10 -10 10 -5 0
-10 -4 -10 -10z"/>
<path d="M980 2710 c0 -11 5 -20 10 -20 6 0 10 9 10 20 0 11 -4 20 -10 20 -5
0 -10 -9 -10 -20z"/>
<path d="M940 2710 c0 -5 5 -10 11 -10 5 0 7 5 4 10 -3 6 -8 10 -11 10 -2 0
-4 -4 -4 -10z"/>
<path d="M899 2698 c0 -2 -2 -16 -4 -33 -4 -28 -3 -29 10 -11 8 10 12 22 10
27 -3 4 1 10 7 12 8 3 6 6 -4 6 -10 1 -18 0 -19 -1z"/>
<path d="M900 2611 c0 -6 5 -13 10 -16 6 -3 10 1 10 9 0 9 -4 16 -10 16 -5 0
-10 -4 -10 -9z"/>
<path d="M943 2604 c-3 -8 0 -21 6 -27 9 -9 11 -8 6 4 -4 10 -2 20 4 24 7 4
14 -6 17 -24 6 -31 18 -39 28 -22 8 12 -4 42 -14 36 -4 -3 -10 2 -14 10 -7 20
-25 19 -33 -1z"/>
<path d="M1050 2602 c0 -14 6 -22 16 -22 14 0 15 3 3 18 -7 9 -15 19 -16 21
-2 2 -3 -5 -3 -17z"/>
<path d="M1101 2574 c0 -11 3 -14 6 -6 3 7 2 16 -1 19 -3 4 -6 -2 -5 -13z"/>
<path d="M911 2543 c-10 -26 -10 -27 4 -9 8 11 15 23 15 28 0 15 -7 8 -19 -19z"/>
<path d="M1044 2547 c-25 -26 -40 -67 -25 -67 6 0 11 6 11 13 0 6 4 18 9 26 8
12 12 12 25 -2 9 -9 12 -18 7 -21 -5 -4 -11 0 -14 6 -5 16 -13 10 -22 -21 -6
-20 -4 -23 9 -18 19 8 21 -9 2 -20 -7 -4 -17 -18 -21 -31 -6 -21 -5 -22 13
-11 12 7 19 16 16 20 -2 4 10 19 28 32 l31 25 -17 46 c-10 25 -21 46 -24 45
-4 0 -17 -10 -28 -22z"/>
<path d="M841 2534 c0 -11 3 -14 6 -6 3 7 2 16 -1 19 -3 4 -6 -2 -5 -13z"/>
<path d="M1000 2540 c0 -5 5 -10 10 -10 6 0 10 5 10 10 0 6 -4 10 -10 10 -5 0
-10 -4 -10 -10z"/>
<path d="M950 2530 c0 -5 5 -10 10 -10 6 0 10 5 10 10 0 6 -4 10 -10 10 -5 0
-10 -4 -10 -10z"/>
<path d="M2541 2508 c0 -14 -4 -35 -7 -45 -5 -17 -5 -17 6 0 6 10 9 30 7 45
l-4 27 -2 -27z"/>
<path d="M935 2500 c-3 -5 -1 -10 4 -10 6 0 11 5 11 10 0 6 -2 10 -4 10 -3 0
-8 -4 -11 -10z"/>
<path d="M2505 2469 c-8 -47 -83 -211 -130 -284 -17 -27 -54 -71 -81 -97 -60
-59 -41 -64 22 -6 50 46 100 130 155 258 33 77 58 170 46 170 -3 0 -8 -18 -12
-41z"/>
<path d="M947 2473 c-4 -3 -7 -13 -7 -22 1 -13 3 -13 11 2 11 19 8 33 -4 20z"/>
<path d="M1003 2445 c0 -20 2 -22 13 -10 8 7 14 16 14 18 0 3 -6 7 -14 10 -9
4 -13 -2 -13 -18z"/>
<path d="M962 2437 c-12 -14 -4 -31 19 -39 12 -5 14 0 11 23 -5 31 -14 36 -30
16z"/>
<path d="M1079 2435 c-1 -5 -1 -13 0 -17 0 -4 -12 -17 -27 -30 -15 -13 -28
-27 -29 -31 -3 -14 -53 -60 -53 -49 0 6 -7 9 -15 6 -20 -8 -19 6 3 22 10 8 12
13 5 14 -7 0 -20 -11 -28 -24 -18 -28 -25 -75 -10 -75 6 0 13 -10 16 -23 6
-21 7 -22 14 -4 6 13 2 23 -13 35 -23 17 -18 34 12 39 15 3 17 -1 12 -22 -4
-15 -2 -26 4 -26 5 0 10 5 10 11 0 15 36 60 43 53 2 -3 11 9 18 25 16 35 30
42 22 11 -3 -11 -19 -31 -35 -45 -26 -22 -28 -29 -23 -62 5 -28 4 -34 -4 -23
-8 12 -16 8 -45 -24 -29 -33 -32 -42 -23 -58 14 -22 29 -24 21 -3 -3 8 1 22
10 31 15 15 16 13 10 -28 -4 -23 -11 -48 -16 -55 -5 -7 -5 -13 0 -17 12 -7 22
3 22 21 0 8 13 42 29 76 16 34 33 73 36 87 4 14 12 28 17 31 17 11 39 115 29
140 -5 13 -11 20 -12 14z"/>
<path d="M1127 2433 c-8 -13 -20 -83 -13 -83 7 0 29 81 23 87 -3 2 -7 1 -10
-4z"/>
<path d="M846 2269 c-8 -44 -8 -55 3 -43 14 14 24 74 13 74 -5 0 -12 -14 -16
-31z"/>
<path d="M805 2230 c-8 -13 -1 -24 14 -19 6 3 7 10 2 18 -6 10 -10 10 -16 1z"/>
<path d="M887 2222 c-10 -11 -15 -26 -11 -35 3 -8 0 -25 -6 -37 -6 -12 -9 -24
-7 -26 6 -6 37 54 37 72 0 7 4 14 10 16 5 2 6 9 1 16 -6 10 -11 8 -24 -6z"/>
<path d="M910 2190 c0 -5 5 -10 11 -10 5 0 7 5 4 10 -3 6 -8 10 -11 10 -2 0
-4 -4 -4 -10z"/>
<path d="M833 2164 c-14 -19 -18 -36 -13 -49 4 -11 5 -24 2 -30 -3 -7 -1 -7 5
0 16 15 28 59 14 51 -17 -11 -13 5 5 19 9 6 15 18 12 25 -3 9 -11 4 -25 -16z"/>
<path d="M871 2091 c-13 -10 -22 -23 -20 -28 2 -5 14 3 27 19 27 33 26 34 -7
9z"/>
<path d="M925 2100 c-3 -5 -2 -10 4 -10 5 0 13 5 16 10 3 6 2 10 -4 10 -5 0
-13 -4 -16 -10z"/>
<path d="M873 2038 c-20 -32 -33 -61 -28 -66 2 -3 7 3 11 12 11 28 23 18 14
-11 -4 -16 -11 -43 -14 -62 -5 -29 -4 -32 9 -21 10 9 15 9 15 1 0 -6 4 -11 9
-11 13 0 45 111 34 119 -4 3 -8 12 -9 19 -2 28 -5 32 -18 32 -8 0 -18 -6 -23
-12z m20 -88 c-3 -11 -10 -23 -16 -27 -7 -4 -8 0 -4 11 4 10 7 22 7 27 0 5 4
9 9 9 5 0 7 -9 4 -20z"/>
<path d="M682 2020 c-7 -11 -10 -20 -6 -20 7 0 34 27 34 34 0 13 -16 5 -28
-14z"/>
<path d="M820 2024 c0 -8 5 -12 10 -9 6 3 10 10 10 16 0 5 -4 9 -10 9 -5 0
-10 -7 -10 -16z"/>
<path d="M730 1990 c0 -5 5 -10 11 -10 5 0 7 5 4 10 -3 6 -8 10 -11 10 -2 0
-4 -4 -4 -10z"/>
<path d="M710 1970 c0 -5 5 -10 11 -10 5 0 7 5 4 10 -3 6 -8 10 -11 10 -2 0
-4 -4 -4 -10z"/>
<path d="M650 1948 c0 -19 2 -20 10 -8 13 19 13 30 0 30 -5 0 -10 -10 -10 -22z"/>
<path d="M1879 1949 c-10 -6 -4 -9 19 -9 17 0 32 2 32 4 0 9 -39 13 -51 5z"/>
<path d="M670 1894 c0 -17 22 -14 28 4 2 7 -3 12 -12 12 -9 0 -16 -7 -16 -16z"/>
<path d="M737 1903 c-4 -3 -7 -11 -7 -17 0 -6 5 -5 12 2 6 6 9 14 7 17 -3 3
-9 2 -12 -2z"/>
<path d="M2356 1878 c-22 -31 -21 -33 19 -52 33 -16 58 -13 84 10 9 8 -53 64
-70 64 -10 0 -25 -10 -33 -22z"/>
<path d="M753 1863 c-7 -2 -13 -11 -13 -19 0 -8 -4 -14 -10 -14 -5 0 -10 -4
-10 -10 0 -17 25 0 37 25 6 14 10 25 10 24 -1 0 -8 -3 -14 -6z"/>
<path d="M800 1806 c0 -9 5 -16 10 -16 6 0 10 4 10 9 0 6 -4 13 -10 16 -5 3
-10 -1 -10 -9z"/>
<path d="M620 1759 c0 -5 5 -7 10 -4 6 3 10 8 10 11 0 2 -4 4 -10 4 -5 0 -10
-5 -10 -11z"/>
<path d="M826 1751 c-10 -11 -22 -19 -26 -16 -4 2 -5 -7 -2 -20 3 -17 0 -25
-10 -25 -7 0 -14 -9 -14 -20 0 -18 2 -18 18 -3 10 9 18 22 18 29 0 7 9 22 21
33 12 11 19 25 17 31 -2 7 -11 4 -22 -9z"/>
<path d="M716 1704 c-8 -22 1 -31 16 -16 9 9 9 15 1 23 -7 7 -12 5 -17 -7z"/>
<path d="M755 1710 c-3 -5 -1 -10 4 -10 6 0 11 5 11 10 0 6 -2 10 -4 10 -3 0
-8 -4 -11 -10z"/>
<path d="M829 1703 c-1 -5 -1 -11 0 -15 0 -5 -3 -8 -9 -8 -5 0 -10 -7 -10 -16
0 -13 3 -14 14 -5 17 14 28 51 15 51 -5 0 -10 -3 -10 -7z"/>
<path d="M650 1650 c0 -5 5 -10 11 -10 5 0 7 5 4 10 -3 6 -8 10 -11 10 -2 0
-4 -4 -4 -10z"/>
<path d="M788 1634 c-5 -4 -8 -19 -8 -33 1 -23 2 -24 11 -8 11 19 9 53 -3 41z"/>
<path d="M737 1613 c-4 -3 -7 -13 -7 -22 1 -13 3 -13 11 2 11 19 8 33 -4 20z"/>
<path d="M2314 1584 c3 -9 6 -20 6 -25 0 -6 5 -7 10 -4 16 10 12 45 -6 45 -11
0 -14 -5 -10 -16z"/>
<path d="M754 1577 c-3 -9 -12 -13 -20 -10 -16 6 -18 -5 -5 -25 6 -10 12 -7
25 13 10 15 15 29 12 32 -3 3 -8 -1 -12 -10z"/>
<path d="M691 1512 c-12 -22 -10 -82 2 -82 5 0 6 14 2 30 -5 23 -3 30 9 30 9
0 16 6 16 14 0 24 -18 28 -29 8z"/>
<path d="M615 1480 c-8 -13 3 -50 16 -50 12 0 12 47 0 55 -5 3 -12 1 -16 -5z"/>
<path d="M2632 1408 c6 -18 13 -40 16 -48 3 -11 6 -11 9 -3 6 16 -16 83 -27
83 -5 0 -3 -15 2 -32z"/>
<path d="M2726 1391 c-4 -7 -5 -15 -2 -18 9 -9 19 4 14 18 -4 11 -6 11 -12 0z"/>
<path d="M630 1375 c-9 -11 -9 -15 -1 -15 7 0 9 -4 6 -10 -3 -5 1 -10 9 -10
17 0 21 17 7 38 -6 10 -10 10 -21 -3z"/>
<path d="M693 1356 c16 -23 15 -24 -9 -30 -17 -5 -24 -12 -20 -21 3 -10 0 -12
-11 -8 -11 4 -14 3 -9 -6 5 -7 14 -10 22 -7 8 3 14 -1 14 -9 0 -8 -4 -15 -9
-15 -5 0 -11 -7 -15 -15 -7 -20 -4 -19 22 4 23 19 29 41 12 41 -5 0 -10 7 -10
16 0 10 6 14 14 11 8 -3 19 5 27 19 10 20 10 27 -1 37 -10 10 -11 9 -5 -3 6
-12 5 -13 -6 -2 -22 21 -32 13 -16 -12z"/>
<path d="M557 1323 c-13 -12 -7 -33 8 -33 8 0 15 9 15 20 0 20 -11 26 -23 13z"/>
<path d="M620 1320 c0 -5 5 -10 11 -10 5 0 7 5 4 10 -3 6 -8 10 -11 10 -2 0
-4 -4 -4 -10z"/>
<path d="M2707 1318 c4 -7 6 -23 4 -35 -1 -13 2 -23 8 -23 12 0 15 29 5 54 -3
9 -10 16 -16 16 -5 0 -6 -6 -1 -12z"/>
<path d="M2610 1258 c0 -21 2 -38 4 -38 9 0 12 50 5 62 -6 8 -9 -1 -9 -24z"/>
<path d="M720 1254 c0 -8 5 -12 10 -9 6 4 8 11 5 16 -9 14 -15 11 -15 -7z"/>
<path d="M2921 1204 c0 -11 3 -14 6 -6 3 7 2 16 -1 19 -3 4 -6 -2 -5 -13z"/>
<path d="M655 1200 c-3 -5 -1 -10 4 -10 6 0 11 5 11 10 0 6 -2 10 -4 10 -3 0
-8 -4 -11 -10z"/>
<path d="M605 1159 c-4 -6 -5 -12 -2 -15 2 -3 7 2 10 11 7 17 1 20 -8 4z"/>
<path d="M2720 1149 c0 -13 5 -31 10 -39 7 -11 8 -5 4 20 -8 43 -14 51 -14 19z"/>
<path d="M456 1123 c-6 -14 -5 -15 5 -6 7 7 10 15 7 18 -3 3 -9 -2 -12 -12z"/>
<path d="M670 1093 c0 -16 5 -20 19 -16 11 3 22 11 25 19 6 17 -10 19 -20 3
-4 -8 -9 -7 -15 2 -6 10 -9 8 -9 -8z"/>
<path d="M615 1080 c4 -12 1 -27 -5 -35 -9 -11 -8 -19 4 -36 l15 -23 -1 30
c-1 16 1 41 5 57 6 21 4 27 -8 27 -12 0 -15 -6 -10 -20z"/>
<path d="M806 1084 c-9 -24 -7 -28 9 -14 17 14 20 30 6 30 -5 0 -12 -7 -15
-16z"/>
<path d="M530 1074 c0 -14 3 -14 15 -4 8 7 15 14 15 16 0 2 -7 4 -15 4 -8 0
-15 -7 -15 -16z"/>
<path d="M0 1068 c0 -11 28 -10 35 1 3 6 -4 9 -15 8 -11 -1 -20 -5 -20 -9z"/>
<path d="M555 1060 c-16 -17 -16 -20 -3 -15 9 4 19 13 22 21 7 19 2 18 -19 -6z"/>
<path d="M590 1069 c0 -5 5 -7 10 -4 6 3 10 8 10 11 0 2 -4 4 -10 4 -5 0 -10
-5 -10 -11z"/>
<path d="M668 1032 c-11 -13 -11 -15 2 -7 13 8 13 7 0 -11 -7 -10 -21 -24 -29
-31 -8 -7 -14 -26 -13 -43 0 -16 -3 -30 -8 -30 -11 0 -20 26 -20 62 0 32 -18
57 -38 50 -13 -4 -17 -28 -4 -34 4 -1 15 -21 26 -43 10 -22 23 -49 29 -60 9
-18 8 -19 -6 -6 -13 10 -17 10 -17 1 0 -7 -7 -10 -15 -6 -14 5 -20 -18 -18
-71 1 -7 -3 -13 -8 -13 -5 0 -6 -8 -2 -17 3 -10 2 -15 -2 -10 -8 7 -58 -83
-51 -91 2 -2 18 17 35 42 17 25 47 57 66 72 19 14 35 35 35 45 0 36 76 138
113 152 8 3 17 14 19 25 4 15 2 19 -8 15 -8 -3 -20 -1 -27 4 -25 20 -46 22
-59 5z"/>
<path d="M1850 974 c-25 -40 -48 -74 -52 -74 -5 0 -8 -6 -8 -14 0 -8 -6 -16
-12 -19 -8 -2 0 -15 21 -33 26 -21 45 -29 78 -29 24 -1 46 2 49 7 3 5 11 5 17
1 18 -11 51 -11 65 -1 8 8 12 6 12 -6 0 -11 4 -14 13 -10 8 5 8 2 -2 -9 -11
-15 -11 -17 2 -17 8 0 17 5 19 11 3 8 10 6 20 -5 9 -9 21 -16 27 -16 16 0 13
20 -3 26 -8 3 -27 23 -41 45 -16 23 -32 36 -39 32 -6 -4 -21 -6 -33 -4 -13 1
-23 -1 -23 -6 0 -10 -71 -14 -117 -7 -46 7 -43 32 13 115 26 37 45 72 43 77
-2 6 -24 -23 -49 -64z"/>
<path d="M230 1030 c0 -5 5 -10 11 -10 5 0 7 5 4 10 -3 6 -8 10 -11 10 -2 0
-4 -4 -4 -10z"/>
<path d="M2813 1016 c4 -10 7 -24 7 -32 0 -9 4 -13 9 -10 11 7 3 44 -12 53 -7
4 -8 0 -4 -11z"/>
<path d="M2821 933 c0 -6 -4 -20 -7 -30 -5 -14 -4 -15 5 -7 7 7 11 20 8 30 -3
11 -5 14 -6 7z"/>
<path d="M500 806 c0 -2 7 -6 15 -10 8 -3 15 -1 15 4 0 6 -7 10 -15 10 -8 0
-15 -2 -15 -4z"/>
<path d="M2740 806 c0 -2 7 -9 15 -16 13 -11 14 -10 9 4 -5 14 -24 23 -24 12z"/>
<path d="M2045 750 c-3 -5 -1 -10 4 -10 6 0 11 5 11 10 0 6 -2 10 -4 10 -3 0
-8 -4 -11 -10z"/>
<path d="M2230 680 c0 -5 5 -10 11 -10 5 0 7 5 4 10 -3 6 -8 10 -11 10 -2 0
-4 -4 -4 -10z"/>
<path d="M475 650 c-3 -5 -1 -10 4 -10 6 0 11 5 11 10 0 6 -2 10 -4 10 -3 0
-8 -4 -11 -10z"/>
<path d="M290 641 c0 -6 5 -13 10 -16 6 -3 10 1 10 9 0 9 -4 16 -10 16 -5 0
-10 -4 -10 -9z"/>
<path d="M418 615 c-3 -14 -2 -25 1 -26 3 0 14 -2 24 -4 13 -2 17 1 13 12 -3
8 -6 21 -6 29 0 24 -27 15 -32 -11z"/>
<path d="M272 460 c0 -14 2 -19 5 -12 2 6 2 18 0 25 -3 6 -5 1 -5 -13z"/>
<path d="M1476 427 c3 -10 9 -15 12 -12 3 3 0 11 -7 18 -10 9 -11 8 -5 -6z"/>
<path d="M1612 303 c-6 -26 -9 -50 -6 -52 6 -6 54 21 54 30 0 4 -7 15 -16 24
-9 8 -13 22 -10 30 3 8 1 15 -4 15 -4 0 -13 -21 -18 -47z"/>
<path d="M1547 273 c-4 -3 -7 -11 -7 -17 0 -6 5 -5 12 2 6 6 9 14 7 17 -3 3
-9 2 -12 -2z"/>
<path d="M1626 217 c-18 -18 -26 -37 -26 -62 0 -19 4 -35 10 -35 15 0 60 49
60 66 0 8 4 13 9 10 5 -4 12 0 14 6 4 9 6 7 6 -3 2 -35 -25 -87 -72 -139 l-50
-55 37 -3 c21 -2 40 -1 43 2 3 3 13 33 23 68 9 34 21 63 26 65 5 2 18 -29 28
-68 10 -39 20 -68 23 -65 5 4 -18 127 -38 199 -10 37 -39 53 -39 20 0 -15 -2
-15 -14 2 -13 18 -14 18 -40 -8z m24 -34 c0 -19 -13 -9 -16 12 -1 8 2 13 7 9
5 -3 9 -12 9 -21z"/>
<path d="M1512 218 c-22 -22 -11 -108 14 -108 8 0 17 7 20 15 4 8 10 15 16 15
5 0 6 -4 3 -10 -3 -5 -2 -10 2 -10 5 0 8 21 8 48 0 26 4 50 10 54 5 4 0 8 -12
8 -19 0 -22 -6 -25 -42 -2 -24 -9 -43 -17 -46 -11 -4 -12 5 -7 42 8 49 7 53
-12 34z"/>
<path d="M1333 193 c-3 -10 -8 -21 -10 -26 -3 -4 1 -6 8 -5 8 2 14 -8 14 -24
1 -42 15 -46 15 -5 0 21 -5 37 -11 37 -6 0 -9 9 -6 20 6 25 -1 27 -10 3z"/>
<path d="M1637 120 c-9 -11 -17 -25 -17 -31 0 -7 10 0 21 15 25 31 21 45 -4
16z"/>
<path d="M1546 93 c-15 -4 -16 -7 -5 -14 11 -7 11 -9 -3 -9 -9 0 -19 -10 -21
-22 -3 -17 -5 -15 -6 9 -1 26 -4 30 -22 26 -11 -3 -26 -16 -31 -29 -6 -13 -15
-24 -20 -24 -5 0 -1 11 8 25 10 15 12 25 5 25 -6 0 -11 -4 -11 -9 0 -5 -9 -11
-20 -14 -11 -3 -20 -1 -20 4 0 17 -29 9 -46 -13 -11 -16 -15 -17 -11 -5 4 10
1 17 -7 17 -19 0 -24 -9 -19 -31 8 -29 41 -24 49 7 5 18 9 22 14 13 5 -7 6
-18 4 -24 -7 -17 26 -28 42 -14 11 9 14 8 14 -2 0 -8 9 -4 21 11 20 24 21 24
16 2 -5 -23 8 -31 16 -9 4 9 8 9 15 -1 7 -11 10 -11 15 2 4 9 11 16 16 16 6 0
8 -7 5 -15 -4 -8 -2 -15 4 -15 14 0 44 49 38 63 -3 9 -5 9 -5 0 -1 -7 -5 -13
-10 -13 -4 0 -6 11 -3 25 2 14 3 24 1 24 -2 -1 -13 -4 -23 -6z m-134 -75 c-7
-7 -12 -8 -12 -2 0 14 12 26 19 19 2 -3 -1 -11 -7 -17z"/>
</g>
</svg>
